<?xml version="1.0" standalone="no"?>
<!DOCTYPE svg PUBLIC "-//W3C//DTD SVG 1.1//EN" "http://www.w3.org/Graphics/SVG/1.1/DTD/svg11.dtd" >
<svg xmlns="http://www.w3.org/2000/svg">
<metadata>Generated by IcoMoon</metadata>
<defs>
<font id="icomoon" horiz-adv-x="1024">
<font-face units-per-em="1024" ascent="960" descent="-64" />
<missing-glyph horiz-adv-x="1024" />
<glyph unicode="&#x20;" horiz-adv-x="512" d="" />
<glyph unicode="&#xe600;" glyph-name="airplane" d="M232.038 934.399l468.173-274.258c50.053 25.907 123.259 63.857 173.773 88.791 63.078 31.15 103.7 17.828 118.999-14.244 15.299-32.082-0.522-70.799-63.529-101.929-50.534-24.955-124.221-61.932-175.165-85.903l-90.348-548.147-76.421-37.11-56.904 483.461-270.664-115.21-28.17-168.499-52.695-25.999-30.157 184.504-123.331 137.185 52.695 26.061 147.528-81.756 257.905 142.019-339.548 347.628 76.39 37.11z" />
<glyph unicode="&#xe601;" glyph-name="airplane-lift" d="M874.865 533.564c-55.091-9.595-155.945-37.827-250.214-59.013 0 0-283.709 105.656-302.111 113.807-20.685 9.206-38.687 5.765-38.687 5.765l-38.984-8.294 191.037-155.648c-46.848-11.131-129.096-31.334-201.779-49.213-35.717 22.077-151.101 93.409-160.266 99.441-10.865 7.096-19.589 4.506-19.589 4.506l-30.218-10.066 85.34-124.436c-7.485-1.802-13.445-3.205-16.732-3.953-25.917-5.786 137.329-59.617 234.25-41.513 97.495 18.217 495.432 109.025 572.477 126.802 77.097 17.787 100.731 39.25 100.536 61.839-0.174 18.842-62.884 50.821-125.061 39.977z" />
<glyph unicode="&#xe602;" glyph-name="alert" d="M512.010 934.399c-268.657 0-486.41-217.805-486.41-486.451 0-268.585 217.754-486.349 486.41-486.349 268.585 0 486.39 217.764 486.39 486.349 0 268.646-217.805 486.451-486.39 486.451zM463.759 666.879c0 26.88 21.75 48.64 48.64 48.64 26.849 0 48.62-21.791 48.62-48.64v-273.592c0-26.849-21.77-48.64-48.62-48.64-26.88 0-48.64 21.791-48.64 48.64v273.592zM515.195 180.51c-30.259 0-54.815 24.525-54.815 54.815 0 30.341 24.556 54.856 54.815 54.856 30.29 0 54.856-24.535 54.856-54.856 0-30.31-24.566-54.815-54.856-54.815z" />
<glyph unicode="&#xe603;" glyph-name="assistance" d="M635.791 227.235c-13.865 2.263-27.218-6.881-29.614-20.685-19.63-113.572-118.733-196.035-235.612-196.035-131.983 0-239.34 105.841-239.34 235.899 0 114.565 83.087 212.122 197.652 232.008 13.967 2.376 23.327 15.534 20.849 29.307-2.427 13.783-15.749 22.968-29.716 20.511-139.151-24.074-240.189-142.602-240.189-281.825 0-157.983 130.396-286.515 290.734-286.515 141.988 0 262.38 100.116 286.269 238.141 2.406 13.814-7.004 26.88-21.033 29.194zM423.567 754.544c50.862 0 92.119 40.622 92.119 90.819 0 50.104-41.257 90.737-92.119 90.737-50.831 0-92.109-40.632-92.109-90.737-0.010-50.156 41.267-90.819 92.109-90.819zM940.841 55.838l-90.399 270.336c-15.739 47.401-35.318 77.824-78.95 77.824h-192.133l-51.845 253.164c-10.107 41.8-52.726 67.543-95.15 57.498-42.414-10.035-68.475-52.060-58.348-93.819l66.324-271.862c8.54-35.021 40.243-59.658 76.8-59.658h219.238l98.97-252.815c12.984-38.062 33.71-63.898 75.53-51.804 40.202 11.643 34.857 47.555 29.962 71.137z" />
<glyph unicode="&#xe604;" glyph-name="baggage" d="M927.642 724.418h-279.828v91.976c0.215 33.546-29.706 54.968-66.12 54.733 0 0-139.295 0.225-138.772 0-36.26 0.225-66.724-21.176-66.683-54.733v-91.976h-279.849c-37.683 0-68.557-30.669-68.557-68.178v-511.457c0-37.499 30.884-68.188 68.557-68.188h95.713c6.892-29.624 33.423-51.814 65.341-51.814 31.908 0 58.481 22.19 65.382 51.814h347.914c6.851-29.624 33.423-51.814 65.341-51.814 31.846 0 58.429 22.19 65.321 51.814h126.239c37.745 0 68.536 30.689 68.536 68.188v511.457c-0.010 37.509-30.802 68.178-68.536 68.178zM424.212 819.035h174.561v-94.618h-174.561v94.618zM863.529 178.738h-702.966c-37.683 0-68.547 7.434-68.547 16.527 0 9.124 30.874 16.538 68.547 16.538h702.966c37.704 0 68.506-7.424 68.506-16.538 0.010-9.093-30.822-16.527-68.506-16.527zM863.529 589.25h-702.966c-37.683 0-68.547 7.424-68.547 16.548 0 9.093 30.874 16.538 68.547 16.538h702.966c37.704 0 68.506-7.434 68.506-16.538 0.010-9.114-30.822-16.548-68.506-16.548z" />
<glyph unicode="&#xe605;" glyph-name="bassinet" d="M717.015 834.518c0.84 3-1.536-2.499-0.717 0.563 10.824 39.148-47.278 63.703-64.963 20.050l-142.664-419.891h497.93c0 194.253-104.325 332.442-289.587 399.278zM511.98 17.704c432.118 0 494.623 19.395 494.623 341.268h-989.204c0-317.051 58.286-341.268 494.582-341.268z" />
<glyph unicode="&#xe606;" glyph-name="bed" d="M956.498 669.511c-24.443 0-44.452-21.729-44.452-48.302v-204.339c0-26.593 2.58-31.375-24.115-31.375h-752.538c-26.685 0-23.45 4.792-23.45 31.375v292.864c0 26.573-20.009 48.292-44.452 48.292s-44.452-21.729-44.452-48.292v-571.761h88.914v127.355c0 26.593-3.246 31.672 23.45 31.672h752.538c26.685 0 24.115-5.089 24.115-31.672v-127.365h88.914v483.226c-0.010 26.593-20.019 48.323-44.472 48.323zM849.94 581.221h-447.621v-136.028h447.601v136.028h0.020zM367.944 581.221h-191.007v-136.028h190.996l0.010 136.028z" />
<glyph unicode="&#xe607;" glyph-name="building" d="M698.143 472.36v370.77l-372.285 97.946v-260.116l-272.998 74.66v-800.225l918.282-0.471v517.048l-272.998 0.389zM325.857 79.461h-173.722v99.246h173.722v-99.246zM325.857 277.974h-173.722v99.246h173.722v-99.246zM325.857 476.476h-173.722v99.246h173.722v-99.246zM598.866 79.461h-173.732v99.246h173.742v-99.246h-0.010zM598.866 277.974h-173.732v99.246h173.742v-99.246h-0.010zM598.866 476.476h-173.732v99.246h173.742v-99.246h-0.010zM598.866 674.979h-173.732v99.256h173.742v-99.256h-0.010zM871.864 79.461h-173.722v99.246h173.722v-99.246zM871.864 277.974h-173.722v99.246h173.722v-99.246z" />
<glyph unicode="&#xe608;" glyph-name="building-2" d="M487.547 936.959v-146.688h-391.168v-831.232h831.242v977.92h-440.074zM487.547 301.311h-293.376v146.688h293.376v-146.688zM487.547 545.791h-293.376v146.688h293.376v-146.688zM829.819 447.999h-244.48v146.688h244.48v-146.688zM829.819 692.479h-244.48v146.688h244.48v-146.688z" />
<glyph unicode="&#xe609;" glyph-name="business" d="M121.569 701.060h71.383v-655.206h-71.383c-50.094 0-98.478 35.154-98.529 99.103 0 0 0.051 455.025 0 456.417 0.051 56.576 47.268 99.686 98.529 99.686zM652.575 701.060h127.13v-655.206h-537.866v655.206h136.909v93.348c0 34.089 29.542 55.89 66.212 55.624-0.522 0.266 139.1 0 139.1 0 36.813 0.266 68.495-21.524 68.495-55.624v-93.348zM603.668 798.852h-176.026v-97.792h176.026v97.792zM1000.888 601.363c0.154 56.586-47.073 99.697-97.946 99.697h-74.373v-655.206h74.373c49.705 0 98.058 35.154 97.946 99.123 0-0.010 0.154 454.994 0 456.387z" />
<glyph unicode="&#xe60a;" glyph-name="business-1" d="M931.492 728.319h-282.522v93.276c0.276 34.017-29.932 55.736-66.662 55.501 0 0-140.554 0.236-140.022 0-36.659 0.236-67.389-21.484-67.297-55.501v-93.276h-282.47c-38.042 0-69.202-31.109-69.202-69.14v-518.707c0-38.021 31.16-69.14 69.202-69.14h111.954c6.973-30.024 33.731-52.541 65.966-52.541 32.215 0 59.085 22.518 66.038 52.541h351.109c6.912-30.024 33.731-52.541 65.946-52.541s59.034 22.518 65.946 52.541h112.005c38.042 0 69.192 31.119 69.192 69.14v518.707c0.010 38.031-31.14 69.14-69.181 69.14zM423.342 824.278h176.189v-95.959h-176.189v95.959zM866.775 223.487h-709.55c-38.042 0-69.202 7.537-69.202 16.804s31.16 16.763 69.202 16.763h709.54c38.052 0 69.202-7.516 69.202-16.763 0-9.257-31.171-16.804-69.192-16.804zM866.775 383.077h-709.55c-38.042 0-69.202 7.516-69.202 16.773s31.16 16.763 69.202 16.763h709.54c38.052 0 69.202-7.506 69.202-16.763s-31.171-16.773-69.192-16.773zM866.775 542.658h-709.55c-38.042 0-69.202 7.506-69.202 16.753 0 9.257 31.16 16.783 69.202 16.783h709.54c38.052 0 69.202-7.537 69.202-16.783s-31.171-16.753-69.192-16.753z" />
<glyph unicode="&#xe60b;" glyph-name="cancel-all" d="M1024 208.26v733.655h-1024v-733.655h432.804v-199.137c-32.532 0-59.658 0-73.851 0-48.507 0-68.803-55.040-68.803-55.040h443.699c0 0-8.305 55.040-68.895 55.040-16.404 0-42.977 0-73.748 0v199.137h432.794zM528.148 512.665c-15.053 15.084-16.097 17.48-27.054 5.294l-85.402-85.391c-15.104-15.094-38.799-15.974-52.746-2.048-13.957 13.937-12.954 37.652 2.099 52.736l85.402 85.238c15.104 15.084 13.107 8.745-2.048 23.869l-83.354 83.292c-15.104 15.135-16.046 38.799-2.099 52.685 13.947 13.875 37.642 12.933 52.797-2.15l83.405-83.292c15.002-15.084 11.745-13.937 26.849 1.096l82.237 82.237c15.145 15.032 38.851 16.026 52.808 2.15 13.947-13.937 13.005-37.601-2.099-52.736l-82.309-82.186c-15.104-15.135-12.892-15.084 2.161-30.167l80.148-80.046c15.053-15.084 16.046-38.799 2.099-52.736-13.957-13.916-37.612-13.036-52.756 2.099l-80.138 80.056z" />
<glyph unicode="&#xe60c;" glyph-name="car" d="M981.883 501.083c-2.591 11.295-5.663 21.299-9.185 30.249-1.065 3.062-2.212 6.083-3.318 8.95l-49.111 355.236c0 0-2.007 13.978-14.52 17.142h-787.507c-12.503-3.164-14.51-17.142-14.51-17.142l-49.060-355.226c-1.198-2.867-2.294-5.888-3.359-8.95-3.543-8.96-6.615-18.954-9.196-30.249-12.933-49.367-20.695-113.316-20.695-183.153 0-55.040 4.782-106.424 13.23-149.883 1.055-11.878 2.212-22.497 3.256-31.724v-103.741c0-27.177 22.088-49.265 49.336-49.265h40.53c27.31 0 49.347 22.077 49.347 49.265v49.684h669.655v-49.684c0-27.177 22.139-49.265 49.439-49.265h40.53c27.249 0 49.347 22.077 49.347 49.265v103.741c1.034 9.216 2.202 19.845 3.246 31.724 8.376 43.459 13.23 94.822 13.23 149.883 0.010 69.837-7.762 133.786-20.685 183.142zM161.987 341.104c-49.49 9.964-88.351 44.698-86.723 77.599 1.638 32.881 43.172 51.456 92.703 41.492 49.592-10.015 88.392-44.698 86.764-77.599-1.679-32.881-43.11-51.456-92.744-41.492zM151.060 598.629l9.155 230.912c0 0 1.096 10.015 10.639 11.817h678.82c9.482-1.812 10.629-11.817 10.629-11.817l9.103-230.912c0.768-42.117-37.652-61.276-359.158-62.321-321.536 1.055-359.956 20.214-359.188 62.321zM858.47 341.104c-49.592-9.964-91.126 8.622-92.754 41.503-1.628 32.901 37.202 67.584 86.815 77.599 49.541 9.964 91.023-8.612 92.662-41.492 1.618-32.911-37.181-67.656-86.723-77.609z" />
<glyph unicode="&#xe60d;" glyph-name="cancel-thin" d="M533.268 447.999l490.732-490.732-21.268-21.268-490.732 490.732-490.721-490.732-21.279 21.268 490.721 490.732-490.721 490.721 21.279 21.268 490.721-490.721 490.732 490.732 21.268-21.268-490.732-490.732z" />
<glyph unicode="&#xe60e;" glyph-name="change-seat" d="M481.608 145.356c-18.176 0-25.108-0.225-25.108-0.225-0.399 2.836-0.86 6.011-1.495 8.817l-27.126 108.114h361.964c0 0-1.659 116.695-75.090 116.695h-316.201l-125.358 499.036c0 0-39.475 100.782-226.775 71.885l205.599-828.14c17.766-83.016 75.254-180.419 188.324-180.419h439.296c91.494 0 97.935 204.237 97.935 204.237h-495.964z" />
<glyph unicode="&#xe60f;" glyph-name="checkbox" d="M0 434.544l332.462-202.127c0 0 184.586 227.236 334.817 392.438 150.241 165.212 356.721 335.145 356.721 335.145s-195.912-203.643-388.383-470.405c-192.461-266.752-303.145-553.595-303.145-553.595s-33.946 80.886-143.677 240.128c-109.722 159.242-188.795 258.417-188.795 258.417z" />
<glyph unicode="&#xe610;" glyph-name="check-thick" d="M1007.544 780.031c-24.054 24.084-66.15 21.484-93.44-5.796l-500.101-500.828c-27.3-27.279-34.601-27.279-61.85 0l-242.196 246.702c-27.3 27.279-69.376 29.972-93.471 5.898s-21.443-66.14 5.847-93.42l312.873-312.637c27.3-27.279 71.997-27.279 99.297 0l567.194 566.774c27.29 27.269 29.891 69.233 5.847 93.307z" />
<glyph unicode="&#xe611;" glyph-name="close" d="M630.374 416.142c-29.481 29.42-28.232 35.523 1.188 64.922l356.68 356.659c29.491 29.42 34.089 72.96 10.301 96.748-23.839 23.839-67.369 19.19-96.799-10.24l-356.669-356.618c-29.399-29.44-30.812-35.41-60.293-6.011l-362.598 362.701c-29.43 29.409-73.042 34.048-96.748 10.209-23.747-23.839-19.169-67.379 10.25-96.788l362.629-362.66c29.409-29.409 21.371-32.85-8.028-62.28l-354.591-354.488c-29.44-29.43-34.007-72.96-10.25-96.788 23.706-23.859 67.318-19.231 96.748 10.24l354.56 354.519c29.481 29.43 37.642 32.758 67.062 3.328l357.919-357.806c29.43-29.42 72.96-34.079 96.799-10.24 23.788 23.788 19.169 67.318-10.301 96.748l-357.857 357.847z" />
<glyph unicode="&#xe612;" glyph-name="close-rounded" d="M512 856.575c225.29 0 408.576-183.276 408.576-408.576 0-225.29-183.286-408.576-408.576-408.576-225.3 0-408.576 183.286-408.576 408.576 0 225.3 183.276 408.576 408.576 408.576zM512 934.399c-268.616 0-486.4-217.774-486.4-486.4 0-268.636 217.784-486.4 486.4-486.4s486.4 217.764 486.4 486.4c0 268.626-217.784 486.4-486.4 486.4v0zM668.938 549.897l-55.020 55.040-101.919-101.919-101.908 101.919-55.030-55.040 101.919-101.898-101.919-101.919 55.030-55.020 101.908 101.919 101.919-101.919 55.020 55.020-101.919 101.919z" />
<glyph unicode="&#xe613;" glyph-name="close-round-fill" d="M512 934.399c-268.646 0-486.4-217.774-486.4-486.4 0-268.657 217.754-486.4 486.4-486.4 268.657 0 486.4 217.743 486.4 486.4 0 268.626-217.743 486.4-486.4 486.4zM595.118 427.908l81.644-81.613c18.801-18.811 19.927-48.364 2.652-65.7-17.285-17.347-46.838-16.189-65.597 2.621l-81.695 81.664c-18.77 18.831-20.091 21.76-33.679 6.584l-88.177-88.259c-18.821-18.77-48.353-19.907-65.659-2.57-17.285 17.326-16.159 46.879 2.673 65.69l88.105 88.115c18.77 18.821 16.282 10.885-2.437 29.686l-85.77 85.74c-18.729 18.801-19.886 48.302-2.58 65.577 17.398 17.285 46.95 16.118 65.659-2.652l85.688-85.699c18.821-18.749 14.684-17.367 33.454 1.393l84.347 84.357c18.708 18.77 48.251 19.968 65.638 2.652 17.357-17.326 16.169-46.828-2.57-65.628l-84.46-84.378c-18.708-18.821-16.046-18.76 2.765-37.581z" />
<glyph unicode="&#xe614;" glyph-name="cloudy" d="M696.351 610.395c-49.92 16.343-102.912 11.592-149.002-13.261-2.867-1.546-26.798-16.732-37.458-23.501l-4.485-2.877c-4.393-2.796-7.178-6.963-8.929-11.489-22.641 7.516-46.766 11.745-71.905 11.745-98.079 0-183.255-61.645-214.405-152.484-11.459 2.744-23.112 4.096-34.918 4.096-84.081-0.020-152.443-68.188-152.443-152.064 0-83.692 66.785-150.446 152.443-152.044h463.708c68.413 0 126.126 61.583 126.126 134.584 0 12.718-2.294 24.812-5.581 36.485 2.529 3.635 7.404 9.912 13.414 17.582 27.382 35.041 40.325 52.716 44.247 64.809 15.8 47.954 11.93 99.164-10.895 144.21-22.886 45.087-61.921 78.531-109.916 94.208zM772.721 386.917c-3.246-8.059-26.778-38.124-36.833-50.964 0-0.020 0-0.020 0-0.041-21.422 27.085-52.541 46.090-88.433 50.678-12.083 65.004-51.579 119.327-105.564 151.849 10.496 6.717 24.945 15.892 27.75 17.49 34.744 18.76 74.506 22.292 112.067 9.974 36.116-11.796 65.454-36.956 82.637-70.83 17.224-33.915 20.142-72.417 8.376-108.155zM735.078 638.975c2.744-1.147 5.499-1.69 8.274-1.69 8.182 0 16.015 4.813 19.405 12.841l39.26 92.191c4.588 10.701-0.451 23.071-11.182 27.617-10.732 4.465-23.163-0.44-27.689-11.162l-39.229-92.191c-4.608-10.691 0.42-23.060 11.162-27.607zM852.695 539.534c4.444 0 8.929 1.393 12.759 4.27l70.656 53.371c9.308 7.014 11.141 20.234 4.055 29.522-6.973 9.308-20.285 11.141-29.522 4.096l-70.697-53.371c-9.308-7.014-11.151-20.234-4.065-29.512 4.096-5.499 10.424-8.376 16.814-8.376zM555.233 662.21c3.205-8.417 11.233-13.609 19.773-13.609 2.478 0 5.018 0.44 7.465 1.382 10.916 4.137 16.425 16.302 12.278 27.177l-32.973 86.733c-4.096 10.854-16.333 16.323-27.187 12.237-10.926-4.157-16.425-16.312-12.319-27.197l32.963-86.723zM984.033 439.592l-86.886 16.732c-11.325 2.284-22.569-5.294-24.699-16.712-2.243-11.407 5.294-22.467 16.773-24.668l86.886-16.732c1.3-0.287 2.673-0.399 4.014-0.399 9.902 0 18.729 7.035 20.695 17.080 2.222 11.428-5.325 22.467-16.783 24.699zM863.119 313.916c-8.837 7.69-22.17 6.789-29.86-1.976-7.629-8.745-6.769-22.067 1.956-29.706l60.518-52.838c4.024-3.523 8.991-5.233 13.916-5.233 5.868 0 11.745 2.447 15.892 7.178 7.649 8.765 6.789 22.067-1.935 29.747l-60.488 52.828z" />
<glyph unicode="&#xe615;" glyph-name="cup" d="M204.749 241.202h595.19c0 0 37.448 0.051 37.448 52.367 0 52.306 0 86.958 0 86.958 4.669-0.297 9.318-0.686 14.049-0.686 93.389 0 169.175 75.899 169.175 169.533 0 93.686-75.786 169.544-169.175 169.544-4.731 0-9.38-0.287-14.049-0.696v116.275h-676.588c0 0 0-498.022 0-540.928 0-52.367 43.95-52.367 43.95-52.367zM837.356 660.919c4.669 0.645 9.277 1.444 14.060 1.444 62.29 0 112.804-50.688 112.804-113.009 0-62.28-50.514-112.988-112.804-112.988-4.782 0-9.39 0.788-14.060 1.444v223.109zM66.324 61.5h888.515c44.442 0 63.375 101.253 63.375 101.253h-1014.825c0 0 7.404-101.253 62.935-101.253z" />
<glyph unicode="&#xe616;" glyph-name="date" d="M889.221 829.326h-105.902c0 0 0 24.248 0 53.811 0 29.553-20.756 53.811-46.141 53.811-25.364 0-46.019-24.259-46.019-53.811 0-29.563 0.041-53.811 0.041-53.811h-359.27c0 0 0 24.248 0 53.811 0 29.553-20.767 53.811-46.182 53.811-25.375 0-46.080-24.259-46.080-53.811 0.051-29.563 0.102-53.811 0.102-53.811l-108.308-1.341c-37.868 0-69.263-26.409-69.263-58.634 0-32.287-0.379-57.303-0.379-57.303h899.4c0 0 0.963 26.348 0.963 58.644-0.020 32.276-35.082 58.634-72.96 58.634zM307.64 467.598h174.725v166.144h-174.725v-166.144zM540.621 467.598h174.797v166.144h-174.797v-166.144zM783.319 467.598h174.756v166.144h-174.756v-166.144zM64.85 213.339h174.817v176.036h-174.817v-176.036zM307.64 213.339h174.725v176.036h-174.725v-176.036zM540.621 213.339h174.797v176.036h-174.797v-176.036zM783.319 213.339h174.756v176.036h-174.756v-176.036zM64.85-40.961h174.817v185.856h-174.817v-185.856zM307.64-40.961h174.725v185.856h-174.725v-185.856zM540.621-40.961h174.797v185.856h-174.797v-185.856z" />
<glyph unicode="&#xe617;" glyph-name="delete" d="M888.596 880.803h-270.152v31.918c0 13.343-10.906 24.238-24.279 24.238h-164.311c-13.353 0-24.259-10.895-24.259-24.238v-31.928h-270.275c-43.878 0-49.019-106.24-49.019-106.24h851.384c0 0-6.697 106.25-49.091 106.25zM172.534 34.262c2.038-41.37 37.622-75.223 79.073-75.223h520.284c41.441 0 77.056 33.853 79.145 75.223l32.102 669.583h-742.574l31.969-669.583z" />
<glyph unicode="&#xe618;" glyph-name="device" d="M973.65 713.963c-6.636 21.176-26.204 35.41-48.599 35.41-5.161 0-10.291-0.768-15.217-2.314l-70.164-21.699v163.287c-0.020 40.233-25.252 63.672-63.631 63.672h-304.558c-39.148 0-66.642-22.712-66.642-63.672v-312.371c-35.512-15.288-60.293-26.112-65.618-28.795-42.875-21.627-75.213-71.26-82.504-91.3-8.899-19.978-208.701-512.502-208.701-512.502h414.167c0 0 100.321 41.636 153.692 99.308 22.477 24.289 40.458 57.18 52.91 84.357h110.479c34.417 0 60.396 21.975 60.396 65.782v37.212h44.37c28.109 0 50.964 22.63 50.964 50.452 0 27.843-22.866 50.442-50.964 50.442h-44.37v16.824h45.599c28.099 0 50.964 22.641 50.964 50.463 0 27.843-22.856 50.463-50.964 50.463h-45.599v16.814h45.599c28.099 0 50.964 22.62 50.964 50.452s-22.856 50.463-50.964 50.463h-45.599v52.951l100.536 31.099c13.005 3.994 23.644 12.8 29.932 24.75 6.328 11.909 7.567 25.58 3.523 38.451zM621.926 170.311c-12.073 0-21.862 9.687-21.862 21.647 0 11.95 9.769 21.627 21.862 21.627s21.862-9.677 21.862-21.627c0-11.96-9.769-21.647-21.862-21.647zM793.836 244.182h-259.113c0.113-24.699-2.13-58.522-11.54-94.351-18.913-71.916-81.224-112.445-83.845-114.135-2.437-1.577-5.192-2.335-7.895-2.335-4.751 0-9.441 2.335-12.237 6.584-4.372 6.697-2.437 15.585 4.321 19.948 0.543 0.338 55.357 36.424 71.465 97.27 17.142 64.645 8.571 121.938 8.499 122.491-0.174 1.239-0.143 2.376-0.010 3.594h165.765c33.976 0 67.953 20.255 67.953 60.047 0 39.782-29.932 64.87-67.953 64.87h-281.457v28.846h62.689v405.975h343.409v-598.804h-0.051z" />
<glyph unicode="&#xe619;" glyph-name="dollar" d="M577.004 358.297c0-18.964 4.035-36.71-45.281-42.834v82.012c29.583-8.602 45.281-18.995 45.281-39.178zM998.4 447.999c0-268.616-217.784-486.4-486.4-486.4s-486.4 217.784-486.4 486.4c0 268.626 217.784 486.4 486.4 486.4s486.4-217.774 486.4-486.4zM665.088 368.076c0 83.21-64.307 107.674-133.366 123.587v86.262c29.583-6.728 60.201-19.558 82.237-39.762l45.568 63.642c-33.034 29.983-58.747 48.937-127.805 54.456v67.369h-49.316v-66.15c-78.909-8.571-131.523-61.174-131.523-122.993 0-83.2 72.366-106.445 131.523-122.358v-96.655c-39.465 7.311-72.673 28.744-95.293 52.613l-47.698-66.079c33.055-33.669 73.933-58.112 142.981-63.621v-56.146h49.306v56.791c88.801 9.124 133.386 61.143 133.386 129.044zM439.572 541.828c0-17.746 23.122-27.535 42.824-34.877v74.65c-29.563-3.676-42.824-18.964-42.824-39.772z" />
<glyph unicode="&#xe61a;" glyph-name="download" d="M540.488 727.94l-67.953 79.217c-8.878 10.363-23.45 27.31-32.369 37.693l-68.004 79.206c-8.919 10.383-23.48 10.383-32.389 0l-67.942-79.206c-8.888-10.373-23.45-27.32-32.369-37.693l-67.994-79.206c-8.888-10.383-4.925-18.862 8.837-18.862h64.481c13.711 0 24.986-11.141 24.986-24.75v-379.105c0-13.619 11.223-24.74 24.986-24.74h122.522c13.711 0 24.996 11.121 24.996 24.74v379.116c0 13.609 11.223 24.75 24.986 24.75h64.43c13.742-0.010 17.736 8.468 8.796 18.842zM843.704 186.859h-57.784c-13.763 0-24.996 11.141-24.996 24.76v379.197c0 13.609-11.284 24.75-24.986 24.75h-122.522c-13.773 0-24.996-11.141-24.996-24.75v-379.197c0-13.619-11.274-24.76-24.986-24.76h-71.178c-13.763 0-17.715-8.458-8.806-18.842l67.983-79.124c8.929-10.383 23.47-27.341 32.369-37.704l67.983-79.237c8.94-10.404 23.47-10.404 32.358 0l68.004 79.237c8.94 10.363 23.491 27.3 32.399 37.704l67.953 79.124c8.919 10.383 4.915 18.842-8.796 18.842z" />
<glyph unicode="&#xe61b;" glyph-name="download-1" d="M391.66 395.621c8.745-10.22 22.979-26.962 31.693-37.181l72.806-85.545c8.724-10.24 22.958-10.24 31.662 0l72.847 85.545c8.735 10.22 22.958 26.962 31.683 37.181l72.786 85.494c8.735 10.23 4.823 18.596-8.622 18.596h-57.774c-13.445 0-24.463 10.988-24.463 24.412v338.668c0 13.425-11.018 24.412-24.463 24.412h-141.711c-13.455 0-24.463-10.988-24.463-24.412v-338.668c0-13.425-11.008-24.412-24.463-24.412h-71.772c-13.445 0-17.347-8.356-8.602-18.596l72.858-85.494zM951.306 285.101c-27.484 0-49.93-22.405-49.93-60.447v-108.995h-779.766v109.384c0 38.042-22.262 60.498-49.408 60.498-27.177 0-49.398-22.456-49.398-60.498v-147.046c0-38.042 31.191-69.192 69.366-69.192h839.649c38.164 0 69.366 31.16 69.366 69.192v146.647c0 38.052-22.456 60.457-49.879 60.457z" />
<glyph unicode="&#xe61c;" glyph-name="dropdown" d="M978.565 697.947c-6.799 15.452-22.159 22.088-39.107 22.088h-854.907c-16.957 0-32.307-6.636-39.117-22.088-6.84-15.493-3.84-31.857 7.598-44.319l427.459-464.261c8.1-8.796 19.548-13.404 31.529-13.404 11.96 0 23.409 5.263 31.508 14.019l427.438 463.534c11.438 12.462 14.438 28.938 7.598 44.431z" />
<glyph unicode="&#xe61d;" glyph-name="edit" d="M990.188 839.341c-3.768 25.037-15.053 46.182-34.099 62.751-40.11 34.734-99.113 33.28-137.411-3.492-16.302-15.514-31.877-31.775-47.882-47.677-0.492-0.471-0.829-1.106-0.942-1.219 48.015-48.138 95.918-96.061 144.005-144.128 0.205 0.164 0.788 0.614 1.321 1.055 15.944 15.964 31.898 31.795 47.698 47.933 13.691 14.080 22.303 31.058 26.296 50.278 0.788 3.502 1.311 7.107 2.017 10.629v19.087c-0.348 1.546-0.799 3.246-1.004 4.782zM768.799 58.091l-646.144-0.829v646.011l421.54 1.331 89.856 89.784h-534.344c-36.813 0-66.908-30.147-66.908-66.959v-691.681c0-36.854 30.095-66.959 66.908-66.959h691.999c36.772 0 66.857 30.106 66.857 66.959v536.402l-89.631-90.47-0.133-423.588zM320.010 397.239c-3.574-3.635-6.308-8.54-7.465-13.312-12.954-51.282-25.713-102.482-38.431-153.569-0.604-2.212-1.106-4.506-1.679-7.025l-0.399-1.751c-0.85-3.84 0.317-7.864 3.031-10.721 2.253-2.335 5.376-3.635 8.571-3.635 0.686 0 1.393 0.051 2.079 0.215 2.068 0.358 3.502 0.635 4.239 0.881 53.35 13.271 106.783 26.644 160.195 40.151 4.076 1.055 8.233 3.502 11.233 6.615l411.464 411.658-142.193 141.527c-136.858-136.95-273.725-273.9-410.644-411.034z" />
<glyph unicode="&#xe61e;" glyph-name="facebook" d="M388.762-40.736h196.844v492.923h137.247l14.725 164.997h-151.972c0 0 0 61.583 0 93.972 0 38.922 7.813 54.282 45.384 54.282 30.3 0 106.578 0 106.578 0v171.295c0 0-112.353 0-136.325 0-146.432 0-212.49-64.481-212.49-188.027 0-107.53 0-131.523 0-131.523h-102.328v-167.076h102.328v-490.844z" />
<glyph unicode="&#xe61f;" glyph-name="flight-1" d="M906.824 378.029c-99.113 2.365-198.185 4.762-297.288 7.127l-263.086 231.895-44.831-22.774 151.818-200.212c-95.273 1.178-347.105-0.891-378.644-0.164-27.146 0.666 144.589-89.641 188.57-97.618 0 0 356.178-10.598 513.987-14.397 40.571-0.983 81.152-1.935 121.702-2.929 27.146-0.604 90.583 20.808 92.774 48.886 1.987 25.897-57.764 49.541-85.002 50.186zM64.963 523.56l-32.819-13.814 37.929-99.123 106.609-0.696-111.718 113.633z" />
<glyph unicode="&#xe620;" glyph-name="food" d="M711.926 934.43c-38.615 0-70.236-31.683-70.236-70.339v-427.151c0-30.024 19.149-55.634 45.681-65.649v-409.528l94.884-0.195v902.523c0 38.656-31.601 70.339-70.328 70.339zM497.49 914.431c-0.307 11.069-9.605 19.999-21.064 19.999h-10.015c-11.674 0-21.002-9.124-21.156-20.275l-9.912-213.146h-27.72l-7.803 213.422c-0.42 11.069-9.605 19.999-21.074 19.999h-11.981c-11.561 0-21.002-9.124-21.156-20.275l-6.717-213.146h-27.771l-8.049 213.422c-0.42 11.069-9.605 19.999-21.064 19.999h-11.049c-11.622 0-21.002-9.124-21.115-20.275l-7.485-192.676-0.625 0.287v-105.994c0 0 3.41-68.065 84.398-83.702v-569.754l94.065-0.276v570.051c80.998 15.616 84.398 83.702 84.398 83.702v105.984l-0.461-0.287-6.646 192.942z" />
<glyph unicode="&#xe621;" glyph-name="forms" d="M418.458 329.922l0.236 166.656c108.042 109.076 218.624 217.487 326.758 326.523l-0.348 126.28h-448.184v-293.386h-293.335v-709.376h742.021v521.134l-136.786-137.718c-70.124 0.102-120.259-0.113-190.362-0.113zM968.479 925.009c-13.66 0-26.020-5.396-35.297-14.070-0.061 0.031-0.256 0.215-0.256 0.246-123.965-123.965-247.644-247.562-370.883-370.79 24.084-24.084 48.517-48.579 74.035-74.127 0.676 1.167 1.485 2.775 2.621 3.922 121.201 121.272 242.401 242.463 363.54 363.704 0.236 0.215 0.502 0.43 0.737 0.645 0.84 0.748 1.802 1.434 2.58 2.232 0.256 0.215 0.502 0.43 0.696 0.645v0.225c8.745 9.288 14.162 21.688 14.162 35.41 0 28.692-23.235 51.958-51.937 51.958zM484.895 392.498c0-1.464 0.154-2.918 0.205-4.383 1.004-0.102 1.485-0.297 2.089-0.297 23.624 0 47.258-0.061 70.963 0.102 1.577 0.041 3.604 1.219 4.762 2.458 8.284 8.458 16.323 17.121 24.361 25.743 3.502 3.625 6.861 7.301 10.342 10.957-25.262 25.088-50.401 49.807-75.581 74.772-11.264-10.67-22.927-21.596-34.396-32.819-1.444-1.516-2.58-4.198-2.632-6.359-0.215-23.398-0.113-46.756-0.113-70.175zM223.826 945.233c-72.786-72.909-145.664-143.268-218.46-216.084h218.46v216.084z" />
<glyph unicode="&#xe622;" glyph-name="forward" d="M994.15 555.232l-335.442 285.573c-6.881 5.898-21.832 7.199-30.085 3.441-8.233-3.779-18.729-12.001-18.729-21.064v-138.885l-4.69-0.42c-22.077-0.983-41.492-1.925-63.365-3.758-59.515-4.874-114.637-16.189-166.287-33.577-103.209-34.847-183.378-98.038-239.616-187.863-28.16-45.169-50.504-95.969-68.782-155.32-18.79-60.979-32.072-126.423-42.209-206.070l-2.458-21.74c-1.382-11.633 6.185-22.477 17.623-25.252 1.884-0.451 3.758-0.666 5.601-0.666 9.462 0 18.258 5.775 21.821 14.94 1.823 4.813 2.918 9.646 3.779 14.469 9.155 49.009 21.228 88.228 38.042 123.423 24.586 51.825 58.9 90.399 104.888 118.036 30.024 18.053 64.973 31.857 106.895 42.332 51.169 12.739 107.254 20.337 176.538 23.808 30.505 1.536 61.102 2.314 91.648 3.092 10.394 0.266 15.534 0.573 25.907 0.829-0.164-35.799-5.335-71.68-5.335-107.52v-30.874c0-9.062 10.516-17.285 18.831-21.053 8.284-3.809 20.603-2.478 27.525 3.441l336.62 285.43c5.171 4.393 8.806 10.834 8.806 17.603s-2.314 13.22-7.526 17.644z" />
<glyph unicode="&#xe623;" glyph-name="gear" d="M959.539 421.16c-54.876 14.715-67.318 143.493-22.303 169.503 14.735 8.561 26.194 20.695 33.761 34.703-11.715 42.732-51.681 104.294-74.22 131.676-16.456 0.768-33.311-3-48.64-11.868-49.111-28.396-150.62 47.555-135.496 104.069 4.721 17.654 2.232 39.076-1.618 51.589-27.914 14.449-94.003 33.874-143.104 38.687-10.568-7.7-22.682-26.327-27.392-44.104-16.005-59.771-142.735-68.465-169.923-21.35-9.073 15.739-25.784 30.403-37.335 35.226-31.754-9.636-100.751-49.674-128.655-72.786 1.925-16.374 2.294-35.389 11.674-51.62 27.156-47.124-46.397-151.89-104.489-136.315-19.108 5.11-39.158 3.656-55.511-3.082-13.486-29.87-33.884-108.646-35.809-140.431 3.85-8.663 26.819-23.89 45.199-28.805 79.063-21.207 79.688-137.257 22.405-170.353-16.179-9.359-30.044-22.344-35.809-38.717 9.615-30.833 48.292-98.56 73.308-127.457 16.364-1.925 35.369 2.273 51.599 11.684 51.159 29.573 153.477-39.987 136.182-104.591-4.495-16.824-2.007-34.519 0.87-51.855 38.502-16.374 108.134-39.404 146.627-38.441 12.503 11.571 20.224 27.668 24.617 44.104 15.135 56.545 140.114 74.598 169.636 23.409 8.253-14.316 19.804-27.914 33.27-35.625 40.417 11.571 111.462 51.343 135.537 76.39 0.952 18.299-5.939 33.567-14.49 48.425-31.918 55.276 42.639 152.095 103.956 135.639 16.794-4.485 35.082-2.98 50.483 0.87 13.466 33.72 35.799 93.952 39.639 144.015-13.455 15.411-26.235 22.651-43.971 27.412zM772.721 383.794c-37.427-139.878-181.064-222.853-320.799-185.385-139.725 37.478-222.628 181.258-185.201 321.126 37.437 139.868 181.064 222.853 320.788 185.385 139.725-37.478 222.648-181.228 185.211-321.126z" />
<glyph unicode="&#xe624;" glyph-name="get-boarding-pass" d="M622.551 351.61h43.284v43.274h-43.284v-43.274zM962.683 752.332l-760.259 0.123c-33.72 0.051-61.297-27.576-61.297-61.297v-7.158l-58.45 0.010c-22.098 0-42.895-8.673-58.573-24.402-15.657-15.698-24.228-36.547-24.105-58.696l0.379-374.303c0.205-45.67 37.55-82.821 83.251-82.821l771.154-0.246c45.752 0 82.975 37.222 82.975 82.954v15.555h24.801c33.731-0.061 61.327 27.597 61.327 61.317l0.113 387.615c0 33.72-27.597 61.348-61.317 61.348zM894.484 226.487c0-21.903-17.797-39.68-39.7-39.68l-188.948 0.051v34.929h-43.284v-34.898l-538.921 0.174c-21.955 0-39.854 17.828-39.997 39.803l-0.358 374.313c-0.051 10.476 4.024 20.398 11.5 27.873 7.475 7.526 17.377 11.674 27.904 11.674l539.873-0.164v-29.286h43.284v29.276l188.948-0.041c21.903 0 39.7-17.777 39.7-39.68v-374.344zM622.551 265.061h43.284v43.264h-43.284v-43.264zM622.551 524.707h43.284v43.305h-43.284v-43.305zM622.551 438.158h43.284v43.305h-43.284v-43.305z" />
<glyph unicode="&#xe625;" glyph-name="gplus" d="M850.575 764.937v121.928h-61.102v-121.928h-122.132v-60.979h122.143v-121.917h61.102v121.928h122.214v60.979h-122.225zM515.154 385.883c-85.545 62.28-106.465 97.454-24.791 160.471 46.029 35.512 78.254 82.842 78.254 141.281 0 63.652-26.102 121.426-75.151 149.473h69.571l59.126 61.983c0 0-223.109 0-264.837 0-165.294 0-246.364-98.877-246.364-207.677 0-111.165 76.401-198.748 225.628-198.748-23.132-46.623-13.855-89.682 24.023-120.433-254.874-0.061-309.412-111.718-309.412-197.663 0-111.432 128.297-177.644 282.153-177.644 210.412 0 294.031 111.258 294.031 202.701 0.010 74.496-27.904 123.197-112.23 186.255zM210.545 693.022c-12.38 93.583 35.512 165.171 106.885 163.062 71.363-2.15 132.475-78.92 144.794-172.472 12.237-93.553-28.795-153.784-100.168-151.644-71.373 2.181-139.182 67.512-151.511 161.055zM334.162 46.489c-106.383 0-183.153 67.133-183.153 147.886 0 79.104 90.081 147.323 196.424 146.145 118.026 0 188.324-73.349 188.324-150.344 0-80.66-65.649-143.688-201.595-143.688z" />
<glyph unicode="&#xe626;" glyph-name="group-user" d="M450.529 350.064c-12.646 15.421-12.646 15.421-4.178 72.694 14.469 64.092 27.587 24.31 48.282 152.146 17.388 107.366-19.702 199.629-132.28 199.629-112.589 0-149.668-92.262-132.291-199.629 20.695-127.836 33.802-88.064 48.292-152.146 8.479-57.272 8.479-57.272-4.178-72.694-59.965-73.073-223.324-63.15-241.418-156.457-2.14-11.039-12.175-72.141-12.175-72.141h683.551c0 0-10.056 61.102-12.186 72.141-18.094 93.307-181.463 83.384-241.418 156.457zM992 189.132c-16.978 87.501-170.189 78.193-226.406 146.729-11.858 14.459-11.858 14.459-3.922 68.157 13.578 60.109 25.866 22.815 45.281 142.705 16.302 100.7-18.493 187.228-124.068 187.228s-140.37-86.528-124.047-187.228c19.415-119.89 31.683-82.586 45.251-142.705 7.946-53.699 7.946-53.699-3.901-68.157-9.861-12.022-22.733-21.606-37.325-29.778 3.4-1.198 6.779-2.396 10.158-3.584 60.785-21.34 123.617-43.407 135.7-105.626 2.15-11.151 11.848-70.124 12.268-72.643l0.44-2.765h281.989c0 0-9.431 57.313-11.418 67.666z" />
<glyph unicode="&#xe627;" glyph-name="gym" d="M940.759 570.674h-13.322v114.493c0 32.307-26.378 58.716-58.665 58.716h-0.922c-32.297 0-58.675-26.409-58.675-58.716v-173.855c-0.256-1.331-0.236-2.775-0.44-4.147h-590.971v178.002c0 32.307-26.388 58.716-58.675 58.716h-0.922c-32.276 0-58.665-26.409-58.665-58.716v-114.493h-16.271c-40.827 0-73.933-33.106-73.933-73.964v-118.354c0-40.858 33.096-73.984 73.933-73.984h16.261v-93.542c0-32.297 26.388-58.716 58.665-58.716h0.922c32.287 0 58.675 26.419 58.675 58.716v177.992h589.937v-10.476c0-4.977 0.522-9.882 1.485-14.602v-152.924c0-32.297 26.378-58.696 58.675-58.696h0.922c32.276 0 58.665 26.399 58.665 58.696v93.563h13.322c40.837 0 73.943 33.116 73.943 73.964v118.374c0 40.847-33.106 73.953-73.943 73.953z" />
<glyph unicode="&#xe628;" glyph-name="icons-42" d="M932.055 737.924h-114.248c-38.072 0-39.977 12.36-4.311 25.58 0 0 30.802 12.134 37.683 55.941 8.12 49.93-54.733 126.013-130.662 116.408-90.982-11.919-157.665-87.419-204.78-146.135-46.612 57.58-107.571 124.959-194.652 144.486-84.511 18.852-142.285-63.724-140.759-114.79 1.526-43.428 32.901-54.804 32.901-54.804 35.758-12.974 33.843-23.562-4.198-23.501l-116.449 0.092c-38.052 0.041-69.54-30.956-69.54-68.884v-153.457l977.592-0.85 0.328 152.248c0.195 37.919-30.853 67.666-68.905 67.666zM241.254 804.064c-15.34 16.159-5.059 38.062 4.68 54.538 17.664 29.174 42.342 46.95 84.408 30.423 58.583-23.091 101.755-71.936 136.868-115.64-74.414-7.741-185.508-10.793-225.956 30.679zM565.156 774.133c36.229 43.807 78.213 88.32 136.479 115.651 60.836 28.396 117.586-48.466 88.689-85.33-22.405-28.037-92.979-30.7-131.144-32.256-31.263-1.475-62.843-0.809-94.024 1.935zM71.895-40.961h879.503v486.799h-879.503v-486.799z" />
<glyph unicode="&#xe629;" glyph-name="icons-43" d="M641.536 399.635v-63.007c0-6.144-5.089-11.151-11.274-11.151h-235.612c-6.185 0-11.284 5.007-11.284 11.151v63.007l-381.696 0.307-1.669-335.811c0-18.299 14.971-33.167 33.444-33.167h955.433c18.483 0 33.454 14.868 33.454 33.167l1.669 335.811-382.464-0.307zM383.365 528.68c0 6.195 5.089 11.151 11.284 11.151h235.622c6.185 0 11.274-4.956 11.274-11.151v-56.863h380.785v205.537c0 18.34-14.971 33.219-33.454 33.219h-332.257v103.209c0 28.262-23.163 51.261-51.62 51.261h-188.682c-28.447 0-51.722-22.999-51.722-51.261v-103.209h-331.151c-18.473 0-33.444-14.879-33.444-33.219v-205.537h383.365v56.863zM417.72 812.348h185.795v-101.775h-185.795v101.775zM442.573 488.232c-3.594 0-6.595-2.724-6.595-6.093v-96.379c0-3.42 3-6.144 6.595-6.144h139.878c3.492 0 6.482 2.724 6.482 6.144v96.379c0 3.369-2.99 6.093-6.482 6.093h-139.878z" />
<glyph unicode="&#xe62a;" glyph-name="info-17" d="M429.742 279.571l-30.556 675.308h222.689l-29.123-675.308h-163.011zM511.273 182.619c-64.061 0-116.439-55.521-116.439-121.508 0-64.492 52.378-119.992 116.439-119.992 64.041 0 117.903 55.501 117.903 119.992-0.041 66.007-53.852 121.508-117.903 121.508z" />
<glyph unicode="&#xe62b;" glyph-name="info-round-fill" d="M512.010 934.399c-268.616 0-486.41-217.764-486.41-486.349 0-268.626 217.795-486.451 486.41-486.451 268.626 0 486.39 217.825 486.39 486.451 0 268.585-217.764 486.349-486.39 486.349zM560.261 229.109c0-26.829-21.801-48.62-48.63-48.62-26.88 0-48.64 21.791-48.64 48.62v273.623c0 26.839 21.75 48.64 48.64 48.64 26.829 0 48.63-21.801 48.63-48.64v-273.623zM508.826 605.828c-30.3 0-54.866 24.525-54.866 54.845 0 30.31 24.566 54.825 54.866 54.825 30.249 0 54.804-24.525 54.804-54.825 0-30.331-24.545-54.845-54.804-54.845z" />
<glyph unicode="&#xe62c;" glyph-name="info-2" d="M914.401 585.963v0.020c42.936 0 77.896 34.929 77.937 77.885 0 42.998-34.98 77.998-77.937 77.998h-93.379l20.357 97.874c4.219 20.398 0.256 41.175-11.141 58.604-11.438 17.418-28.918 29.317-49.316 33.567-5.233 1.065-10.578 1.638-15.903 1.638-36.68 0-68.751-26.081-76.278-62.054l-26.982-129.628-173.23-0.061 20.562 99.011c4.28 20.388 0.307 41.175-11.090 58.624-11.418 17.388-28.959 29.338-49.306 33.556-5.233 1.116-10.629 1.679-15.954 1.679-36.7 0-68.762-26.112-76.237-62.085l-27.187-130.785h-161.761c-42.947 0-77.896-34.949-77.896-77.937 0-42.926 34.99-77.875 77.957-77.875h129.249l-52.029-250.214h-135.291c-42.926 0-77.885-34.949-77.885-77.947 0-42.926 34.97-77.885 77.937-77.885h102.84l-25.784-123.709c-8.714-42.025 18.391-83.384 60.467-92.17 5.233-1.065 10.588-1.628 15.913-1.628 36.7 0 68.782 26.102 76.268 62.054l32.307 155.453h173.281l-25.979-124.826c-4.209-20.357-0.287-41.175 11.121-58.573 11.428-17.418 28.938-29.338 49.347-33.567 5.233-1.085 10.578-1.649 15.882-1.649 36.731 0 68.823 26.112 76.298 62.054l32.532 156.57h152.269c42.947 0 77.896 34.929 77.937 77.896 0 42.988-34.97 77.998-77.937 77.998h-119.798l52.009 250.132h125.829zM577.341 335.851l-173.281-0.072 52.029 250.204h173.251l-51.999-250.132z" />
<glyph unicode="&#xe62d;" glyph-name="info-13" d="M0 959.999v-1024h1024l-1024 1024zM249.938 429.209c21.443 0 38.799-16.968 38.799-38.584 0-21.586-17.357-39.086-38.799-39.086-20.931 0-38.81 17.5-38.81 39.086 0.020 21.617 17.889 38.584 38.81 38.584zM275.681 80.004h-61.266v246.866h61.266v-246.866z" />
<glyph unicode="&#xe62e;" glyph-name="info" d="M601.815 765.439c26.665 0 50.586 11.284 71.117 33.516 19.968 21.586 30.044 47.124 30.044 75.735 0 22.825-7.557 42.025-22.477 57.027-14.807 15.135-34.58 23.163-56.996 23.163-27.74 0-51.814-10.783-71.516-32.020-19.241-20.593-28.938-45.793-28.938-74.988 0-23.859 7.557-43.715 22.282-58.86 14.889-15.391 34.417-23.572 56.484-23.572zM532.49 81.448c1.106 26.819 16.466 104.202 80.794 317.676 45.015 149.361 51.108 182.487 51.108 195.246 0 19.302-7.547 35.84-22.026 47.667-13.261 10.885-31.283 16.333-53.545 16.333-34.427 0-73.923-12.575-120.627-38.615-44.585-24.955-94.095-66.877-147.149-124.692l69.417-59.75c57.61 55.695 77.23 70.83 83.692 74.895 3.963 2.417 7.311 4.26 10.209 5.499-0.645-3.758-1.7-7.875-3-12.124-78.838-252.58-117.176-407.839-117.176-474.726 0-26.132 7.608-47.421 22.385-63.252 15.36-16.251 35.942-24.494 61.061-24.494 25.334 0 55.357 10.025 91.802 30.618 34.202 19.261 86.344 61.665 159.416 129.587l-63.867 64.543c-61.491-56.986-90.286-77.292-102.492-84.408z" />
<glyph unicode="&#xe62f;" glyph-name="info-1" d="M235.674 65.043c-6.451 10.721-8.387 23.572-5.366 35.697l92.805 373.576c1.812 7.281 8.305 33.423 10.066 40.52l90.45 364.083h-43.059c-12.513 0-24.525-4.977-33.372-13.804-8.847-8.837-13.824-20.828-13.814-33.341 0-10.588-4.127-20.531-11.622-28.017-7.496-7.496-17.459-11.622-28.058-11.622-21.893 0-39.68 17.797-39.68 39.67 0 26.030-21.125 47.145-47.196 47.145h-144.282c-26.061 0-47.186-21.105-47.186-47.145v-811.602c0-12.503 4.966-24.494 13.814-33.352 8.847-8.827 20.849-13.793 33.362-13.793h462.316c5.059 0 9.83 1.004 14.408 2.468l-274.555 68.096c-12.134 3.011-22.589 10.721-29.030 21.422zM972.82 831.938l-140.052 34.734c-12.145 3.011-24.986 1.085-35.717-5.366-10.721-6.441-18.432-16.876-21.443-29.030-2.55-10.291-8.95-18.954-18.033-24.402-9.093-5.478-19.753-7.076-30.034-4.526-21.238 5.284-34.232 26.829-28.948 48.056 6.277 25.272-9.144 50.831-34.447 57.108l-140.012 34.734c-25.293 6.267-50.883-9.134-57.16-34.396l-92.815-373.596c-1.751-7.096-8.253-33.229-10.056-40.52l-92.805-373.576c-3.021-12.134-1.085-24.965 5.356-35.697 6.441-10.711 16.896-18.401 29.051-21.422l448.707-111.288c25.313-6.277 50.893 9.114 57.17 34.386l92.805 373.555c1.823 7.291 8.253 33.26 10.056 40.55l92.785 373.545c6.287 25.303-9.103 50.872-34.406 57.149z" />
<glyph unicode="&#xe630;" glyph-name="instagram" d="M146.668 939.519h730.685c69.396 0 126.167-56.771 126.167-126.177v-730.696c0-69.396-56.771-126.167-126.167-126.167h-730.685c-69.417 0-126.188 56.771-126.188 126.167v730.696c0 69.407 56.771 126.177 126.188 126.177v0zM736.594 830.289c-24.351 0-44.247-19.907-44.247-44.257v-105.923c0-24.34 19.896-44.257 44.247-44.257h111.114c24.34 0 44.247 19.917 44.247 44.257v105.933c0 24.351-19.907 44.257-44.247 44.257l-111.114-0.010zM892.416 523.806h-86.528c8.192-26.737 12.605-55.040 12.605-84.357 0-163.512-136.806-296.049-305.562-296.049-168.745 0-305.562 132.536-305.562 296.049 0 29.317 4.434 57.61 12.616 84.357h-90.276v-415.263c0-21.484 17.572-39.066 39.076-39.066h684.554c21.494 0 39.076 17.592 39.076 39.066v415.263zM512.932 641.433c-109.025 0-197.427-85.647-197.427-191.293 0-105.656 88.402-191.293 197.427-191.293 109.046 0 197.448 85.637 197.448 191.293 0 105.646-88.402 191.293-197.448 191.293z" />
<glyph unicode="&#xe631;" glyph-name="location" d="M511.98 938.096c-183.337 0-332.001-148.654-332.001-332.001 0-3.932 0.123-7.916 0.317-11.96 1.219-34.867 7.823-68.372 18.985-99.697 70.83-232.817 312.699-536.535 312.699-536.535s241.859 303.677 312.709 536.504c11.192 31.314 17.777 64.86 18.995 99.727 0.205 4.045 0.328 8.028 0.328 11.96 0.010 183.357-148.654 332.001-332.032 332.001zM511.98 443.483c-89.764 0-162.591 72.817-162.591 162.611 0 89.805 72.827 162.611 162.591 162.611 89.815 0 162.642-72.806 162.642-162.611 0-89.795-72.817-162.611-162.642-162.611z" />
<glyph unicode="&#xe632;" glyph-name="lounges" d="M918.825 620.051c-98.929 2.744-128.553-63.744-156.754-131.584-149.238 31.273-353.843 31.795-500.838-1.925-27.935 68.782-57.108 136.346-156.723 133.519 9.37 94.433 60.16 169.902 160.553 179.313 71.578 6.676 159.754 0 246.62 0 85.78 0 173.957 5.857 244.654 0 103.885-8.694 154.255-88.187 162.488-179.323zM238.316 425.512c152.852 51.855 392.888 54.712 544.799 0 31.293 42.834 25.59 89.866 63.099 125.901 66.396 63.713 186.696-15.196 137.615-104.919-11.489-20.941-30.73-30.884-53.524-43.868-14.592-44.216-1.198-100.086-19.128-144.998-11.674-29.082-52.593-48.241-93.655-51.456-89.211-6.953-198.584 0-303.985 0-108.667 0-209.347-6.339-303.933 0-44.39 2.98-86.538 23.644-97.516 51.456-16.353 41.615-6.892 99.922-17.193 143.063-48.353 20.879-81.275 69.069-59.249 122.112 8.796 21.135 37.478 48.271 70.738 51.487 96.195 9.257 96.082-92.846 131.932-148.777zM217.242 93.654c-17.172 0-34.386 0-51.599 0-35.092 6.308-31.662 51.016-30.597 93.45 25.395-18.545 68.065-19.825 112.804-19.077 2.99-37.919-0.973-68.977-30.607-74.373zM857.661 93.654c-17.183 0-34.437 0-51.61 0-29.082 4.106-35.871 40.468-28.641 74.363 44.022-2.591 88.443 4.598 110.889 17.183 1.249-41.964 3.82-85.248-30.638-91.546z" />
<glyph unicode="&#xe633;" glyph-name="lounges-1" d="M531.825 472.974v-156.744h340.726v156.744c0 29.327 17.019 53.34 37.857 53.34 20.828 0 37.857 0 37.857 0v150.692c0 29.348-24.156 53.35-53.658 53.35h-384.881c-29.491 0-53.647-24.013-53.647-53.35v-150.692h37.878c20.818 0 37.868-24.003 37.868-53.34zM1002.496 488.662h-70.615c-11.807 0-21.473-9.595-21.473-21.35v-189.153l-416.451 0.819v188.334c0 11.756-9.677 21.35-21.473 21.35h-70.615c-11.858 0-21.535-9.595-21.535-21.35v-46.305c-3.144 0.276-6.318 0.553-9.748 0.553h-288.87c-57.569 0-81.715-65.055-81.715-65.055h188.344v-153.119h-45.169c-33.096 0-46.991-37.356-46.991-37.356h92.16v-0.379h75.735v0.379h92.109c0 0-5.673 37.356-46.991 37.356h-45.107v153.108h116.255v-190.863h643.656v301.67c0 11.766-9.636 21.361-21.504 21.361z" />
<glyph unicode="&#xe634;" glyph-name="mail" d="M60.365 752.547l451.594-302.080 451.645 302.080c33.198 22.272 27.75 40.428-12.196 40.428h-878.858c-39.905 0-45.404-18.156-12.186-40.428zM514.15 343.807l-514.15 341.115v-509.164c0-40.018 32.645-72.745 72.55-72.745h878.899c39.895 0 72.55 32.717 72.55 72.745v509.164l-509.85-341.115z" />
<glyph unicode="&#xe635;" glyph-name="man-enclosed" d="M848.2 958.596l-611.287 1.403v-1023.703l610.181-0.297c39.956 0 72.714 32.655 72.755 72.53l0.901 877.404c0.051 39.885-32.604 72.571-72.55 72.663zM580.157 707.081c39.731 0 71.977-32.205 71.977-71.885 0-39.69-32.246-71.823-71.977-71.823-39.752 0-71.956 32.133-71.956 71.823 0 39.68 32.205 71.885 71.956 71.885zM452.198 459.56c0 43.919 36.055 79.821 79.995 79.821h95.918c43.981 0 79.995-35.901 79.995-79.821v-18.606h-255.908v18.606zM695.378 170.382h-232.96c-14.172 0-25.641 11.448-25.641 25.6s11.469 25.6 25.641 25.6h232.96c14.172 0 25.631-11.448 25.631-25.6s-11.459-25.6-25.631-25.6zM695.378 298.7h-232.96c-14.172 0-25.641 11.459-25.641 25.61 0 14.121 11.469 25.569 25.641 25.569h232.96c14.172 0 25.631-11.448 25.631-25.569 0-14.152-11.459-25.61-25.631-25.61zM103.25-64.001h77.281v1023.703h-77.281v-1023.703z" />
<glyph unicode="&#xe636;" glyph-name="mark-as-read" d="M769.055 729.138l-256 193.7-512-388.506h-1.055v-488.837c0-39.813 32.655-72.335 72.55-72.335h878.899c39.905 0 72.55 32.532 72.55 72.335v489.933l-254.945 193.71zM514.15 211.803l-390.001 292.792 388.905 290.099 377.293-281.641-376.197-301.251z" />
<glyph unicode="&#xe637;" glyph-name="meal" d="M1024.010 158.381c0-22.323-18.237-40.376-40.786-40.376-22.528 0-40.745 18.074-40.745 40.376l22.774 239.657c0 10.516-3.676 20.142-10.394 27.331-7.014 7.506-11.028 17.306-11.028 28.375v166.062c0 0-4.454 157.164 53.709 157.164 14.991 0 26.388-12.012 26.388-26.829l0.082-591.759zM530.893 778.003c-184.115 0-333.373-147.589-333.373-329.626 0-182.047 149.248-329.615 333.373-329.615 184.146 0 333.414 147.569 333.414 329.615-0.010 182.026-149.268 329.626-333.414 329.626zM120.596 771.716h-22.395v-185.784h-5.202v185.784h-20.9v-185.784h-5.202v185.784h-20.869v-185.784h-5.233v185.784h-21.166l-17.961-196.7c-0.399-2.918-1.659-5.734-1.659-8.745 0-13.332 4.26-25.569 9.472-36.076v-0.031l27.863-42.301c5.765-9.912 9.574-21.402 9.574-33.628l-17.807-294.687c0-22.252 18.371-40.274 40.858-40.274s40.776 18.022 40.776 40.274l-18.043 294.687c0 12.227 3.799 23.716 9.574 33.628l27.249 42.342c5.233 10.496 10.076 22.753 10.076 36.065 0 3.011-0.645 5.827-1.065 8.745l-17.94 196.7z" />
<glyph unicode="&#xe638;" glyph-name="minus" d="M602.86 392.498l357.386-0.020c35.072-0.041 63.754 24.965 63.754 55.491 0 30.546-28.682 55.552-63.754 55.552h-896.492c-35.052 0-63.754-24.975-63.754-55.521-0.051-30.536 28.6-55.47 63.642-55.47l539.218-0.031z" />
<glyph unicode="&#xe639;" glyph-name="nav" d="M0-64.001h1024v128h-1024v-128zM0 959.999v-128.010h1024v128.010h-1024zM0 384.019h1024v127.99h-1024v-127.99z" />
<glyph unicode="&#xe63a;" glyph-name="note-book" d="M738.202 781.26v161.956h-577.382c-12.268 0-22.221-9.964-22.221-22.231v-945.992c0-12.268 9.953-22.221 22.221-22.221h702.341c12.298 0 22.241 9.953 22.241 22.221v784.056h-124.979c-12.257 0-22.221 9.953-22.221 22.211zM232.847 780.072c0 12.278 9.943 22.231 22.221 22.231h226.714c12.278 0 22.241-9.953 22.241-22.231v-6.666c0-12.278-9.964-22.231-22.241-22.231h-226.714c-12.278 0-22.221 9.953-22.221 22.231v6.666zM815.176 73.235c0-12.268-9.943-22.231-22.221-22.231h-537.887c-12.278 0-22.221 9.964-22.221 22.231v6.687c0 12.268 9.943 22.231 22.221 22.231h537.887c12.278 0 22.221-9.964 22.221-22.231v-6.687zM815.176 213.278c0-12.268-9.943-22.231-22.221-22.231h-537.887c-12.278 0-22.221 9.964-22.221 22.231v6.666c0 12.288 9.943 22.231 22.221 22.231h537.887c12.278 0 22.221-9.943 22.221-22.231v-6.666zM815.176 353.31c0-12.278-9.943-22.221-22.221-22.221h-537.887c-12.278 0-22.221 9.943-22.221 22.221v6.676c0 12.268 9.943 22.211 22.221 22.211h537.887c12.278 0 22.221-9.943 22.221-22.211v-6.676zM815.176 493.331c0-12.268-9.943-22.221-22.221-22.221h-537.887c-12.278 0-22.221 9.953-22.221 22.221v6.676c0 12.278 9.943 22.231 22.221 22.231h537.887c12.278 0 22.221-9.953 22.221-22.231v-6.676zM815.176 640.040v-6.666c0-12.278-9.943-22.241-22.221-22.241h-537.887c-12.278 0-22.221 9.964-22.221 22.241v6.666c0 12.268 9.943 22.231 22.221 22.231h537.887c12.288 0 22.221-9.964 22.221-22.231zM863.16 943.216h-124.959l147.2-184.166v161.935c0 12.278-9.943 22.231-22.241 22.231z" />
<glyph unicode="&#xe63b;" glyph-name="pc" d="M1023.795 849.284c-0.983 13.22-11.919 23.675-25.395 23.675h-972.8c-13.476 0-24.412-10.455-25.405-23.675l-0.195-657.285c0-14.141 11.459-25.6 25.6-25.6h972.8c14.141 0 25.6 11.459 25.6 25.6l-0.205 657.285zM983.040 289.279h-942.080v542.72h942.080v-542.72zM675.84 43.519c-40.96 10.24-51.2 40.96-51.2 81.92v10.24h-225.28v-10.24c0-40.96-10.24-71.68-51.2-81.92-9.933-2.478-10.24-20.48 0-20.48h327.68c10.24 0 9.943 18.002 0 20.48z" />
<glyph unicode="&#xe63c;" glyph-name="point-l" d="M726.927-35.206c-14.193 0-28.334 5.437-39.219 16.2l-429.814 427.244c-10.639 10.547-16.589 24.965-16.589 40.008s5.97 29.43 16.62 39.987l429.844 426.793c21.965 21.791 57.252 21.514 78.858-0.584 21.637-22.098 21.381-57.682-0.573-79.452l-389.54-386.796 389.581-387.205c21.934-21.801 22.149-57.385 0.512-79.452-10.906-11.151-25.283-16.742-39.68-16.742z" />
<glyph unicode="&#xe63d;" glyph-name="point-r" d="M295.434-34.643c-14.51 0-29.020 5.601-40.028 16.722-21.811 22.077-21.524 57.6 0.573 79.38l392.561 386.335-392.571 386.755c-22.098 21.77-22.323 57.303-0.543 79.37 21.78 22.098 57.354 22.313 79.473 0.532l433.172-426.732c10.721-10.547 16.712-24.965 16.712-39.967 0-15.022-6.042-29.389-16.753-39.956l-433.132-426.281c-10.947-10.783-25.201-16.159-39.465-16.159z" />
<glyph unicode="&#xe63e;" glyph-name="phone" d="M746.68 959.999h-469.361c-39.916 0-72.622-32.604-72.622-72.602v-878.787c0-39.905 32.707-72.612 72.622-72.612h469.361c40.018 0 72.632 32.696 72.632 72.612v878.787c0 39.997-32.614 72.602-72.632 72.602zM512-23c-29.512 0-53.32 23.9-53.32 53.504 0 29.399 23.808 53.299 53.32 53.299s53.422-23.9 53.422-53.299c0-29.604-23.91-53.504-53.422-53.504zM742.758 156.005c0-16.906-16.415-34.202-35.625-34.202h-391.782c-19.108 0-34.12 17.285-34.12 34.202v696.34c0 21.402 15.002 30.003 34.12 30.003h398.991c19.098 0 28.406-13.005 28.406-29.901v-696.443z" />
<glyph unicode="&#xe63f;" glyph-name="pin" d="M876.851 828.988h-729.692c-73.861 0-133.929-60.119-133.929-134.021v-493.926c0-73.912 60.058-134.031 133.929-134.031h729.692c73.851 0 133.919 60.109 133.919 134.031v493.926c0 73.902-60.068 134.021-133.919 134.021zM968.264 201.041c0-50.442-41.011-91.484-91.412-91.484h-729.692c-50.401 0-91.423 41.042-91.423 91.484v493.926c0 50.442 41.021 91.494 91.423 91.494h729.692c50.401 0 91.423-41.052 91.423-91.494l-0.010-493.926zM301.937 340.674h42.496v214.671h-42.496v-214.671zM674.161 340.674h42.516v214.671h-42.516v-214.671z" />
<glyph unicode="&#xe640;" glyph-name="plane-card" d="M957.133 643.030l-320.297 212.941c-39.26 26.112-92.908 16.148-119.644-22.149l-30.3-43.459-35.604 23.675c-29.471 19.63-69.652 12.165-89.723-16.609l-321.116-460.421c-20.060-28.795-12.452-68.035 17.039-87.634l320.287-212.972c29.471-19.599 69.673-12.165 89.723 16.63l18.166 26.081 53.432-35.523c39.219-26.112 92.887-16.148 119.613 22.149l321.147 460.421c26.706 38.349 16.538 90.757-22.723 116.869zM419.328 377.261l-31.775-41.134c-0.604-0.717-1.229-1.423-1.833-2.089-0.532-11.704-2.796-62.157-2.949-78.213-0.092-11.704-14.51-21.074-22.067-0.768-4.782 12.902-16.62 45.66-24.218 66.734-22.303 2.458-61.409 6.728-76.268 8.489-21.883 2.652-15.831 18.504-4.178 21.207 18.135 4.229 79.852 21.012 79.852 21.012l0.031-0.102 35.512 41.789c-26.348 8.858-115.907 39.434-130.273 50.606-16.896 13.128 1.772 28.529 15.288 30.044 12.237 1.352 146.493-12.728 170.455-15.268l61.737 72.714c12.769 15.677 35.686 18.647 43.796 12.349 8.1-6.308 10.291-28.764-2.488-44.411l-57.938-74.916c6.687-18.76 52.48-147.63 53.862-159.867 1.567-13.148-9.605-34.396-26.511-21.258-14.459 11.254-65.659 90.583-80.036 113.080zM944.251 549.856l-321.106-460.431c-13.394-19.149-40.212-24.105-59.843-11.080l-53.361 35.492 278.712 399.626c20.060 28.785 12.452 68.004-17.029 87.603l-249.139 165.663 30.28 43.428c13.373 19.159 40.212 24.125 59.853 11.090l320.317-212.982c19.599-13.036 24.668-39.26 11.315-58.409z" />
<glyph unicode="&#xe641;" glyph-name="plug-in" d="M772.772 699.319v165.898c0 39.455-27.013 71.741-59.945 71.741-32.911 0-59.914-32.287-59.914-71.741v-269.353h119.859v103.455zM372.48 699.319v165.898c0 39.455-26.952 71.741-59.914 71.741-32.942 0-59.914-32.287-59.914-71.741v-269.353h119.828v103.455zM131.011 512.357v-278.088c0-97.597 74.988-181.279 172.636-181.279h77.875v-24.044c0-36.639 27.044-69.908 63.724-69.908h129.341c36.628 0 67.942 33.27 67.942 69.908v24.044h73.697c97.587 0 176.763 83.681 176.763 181.279v278.088h-761.979z" />
<glyph unicode="&#xe642;" glyph-name="plus" d="M69.612 399.451c-34.58 0-62.853 22.958-62.792 51.057 0 28.129 28.303 51.118 62.894 51.118h350.075c34.58 0 41.288-2.714 41.288 32.031l0.102 356.27c0 34.755 22.784 63.201 50.811 63.242 27.935 0.061 50.76-28.406 50.76-63.15v-356.362c0-34.785 4.342-32.031 38.922-32.031h352.584c34.601 0 62.925-23.009 62.925-51.139 0-28.088-28.324-51.108-62.925-51.087l-352.625 0.020c-34.591 0.041-38.881-2.877-38.82-37.632v-355.748c0.051-34.775-22.856-63.232-50.78-63.232-28.006 0-50.842 28.457-50.842 63.232v355.758c0 34.744-6.82 37.591-41.39 37.612l-350.188 0.041z" />
<glyph unicode="&#xe643;" glyph-name="point-d" d="M511.826 172.154v0c-15.34 0-29.972 6.103-40.735 16.957l-434.186 437.996c-22.149 22.354-21.893 58.348 0.584 80.384 22.548 22.047 58.634 21.77 80.855-0.594l393.482-396.933 393.882 396.954c22.118 22.395 58.388 22.569 80.804 0.543 22.456-22.036 22.753-58.030 0.584-80.374l-434.575-437.996c-10.742-10.844-25.426-16.937-40.694-16.937z" />
<glyph unicode="&#xe644;" glyph-name="pdf" d="M890.337 959.999h-457.646v-299.592h-299.54v-724.408h757.699l-0.512 1024zM358.031 955.76c-74.301-74.455-148.726-146.309-223.078-220.662h223.078v220.662z" />
<glyph unicode="&#xe645;" glyph-name="permanent-seat" d="M204.8 243.179h614.38v409.62h153.62v307.2h-921.6v-307.2h153.6v-409.62zM153.6 601.599h-153.6v-460.78h153.6v460.78zM819.18 191.999h-614.38v-102.4h-153.6v-153.6h921.62v153.6h-153.641v102.4zM870.4 601.599v-460.78h153.6v460.78h-153.6z" />
<glyph unicode="&#xe646;" glyph-name="point-u" d="M83.466 173.045c-14.326 0-28.631 5.458-39.608 16.353-22.17 21.975-22.395 57.825-0.543 80.097l428.749 436.603c10.619 10.793 25.047 16.855 40.141 16.855 0 0 0 0 0.020 0 15.104 0 29.542-6.083 40.141-16.876l428.329-436.603c21.852-22.292 21.586-58.132-0.614-80.118-22.18-21.985-57.846-21.688-79.718 0.573l-388.198 395.684-388.577-395.684c-11.028-11.274-25.58-16.886-40.12-16.886z" />
<glyph unicode="&#xe647;" glyph-name="preferred" d="M366.387 748.574c50.79 0 92.058 41.288 92.058 92.334 0 50.934-41.267 92.232-92.058 92.232-50.852 0-92.068-41.288-92.068-92.232 0-50.995 41.216-92.334 92.068-92.334zM883.374 38.266l-90.358 274.862c-15.739 48.128-35.308 79.094-78.92 79.094h-192.041l-51.794 257.331c-10.117 42.496-52.705 68.68-95.089 58.46-42.394-10.209-68.485-52.941-58.317-95.386l66.253-276.367c8.509-35.604 40.233-60.621 76.749-60.621h219.156l98.918-257.044c12.954-38.728 33.7-64.963 75.469-52.675 40.192 11.837 34.836 48.425 29.972 72.346zM613.181 238.407h-249.016l-133.417 549.591c-6.195 25.528-31.908 41.267-57.242 34.949-25.467-6.195-41.073-31.898-34.826-57.395l150.948-622.152h323.543c26.245 0 47.411 21.268 47.411 47.514s-21.166 47.493-47.401 47.493z" />
<glyph unicode="&#xe648;" glyph-name="star" d="M999.588 570.039c-2.939 8.735-11.858 15.288-27.894 15.288h-324.823l-108.78 329.175c-5.1 15.288-16.814 22.108-26.102 22.108s-20.982-7.537-26.092-22.835l-108.769-328.448h-324.833c-16.015 0-24.934-6.554-27.914-15.288-2.97-8.745-1.649-20.173 11.1-29.993l268.585-205.875-105.738-338.371c-3.973-12.646-0.358-21.135 3.369-26.225l8.581-10.097h11.93c6.492 0 12.81 2.345 18.78 6.922l271.452 208.118 270.735-208.087c5.99-4.618 12.329-7.045 18.811-7.045l13.476 0.696 7.055 9.605c3.738 5.1 7.301 13.783 3.328 26.491l-105.646 337.818 268.349 206.060c12.718 9.8 14.049 21.238 11.039 29.983z" />
<glyph unicode="&#xe649;" glyph-name="rainy" d="M123.116 258.835c-12.124 0-22.006-9.841-22.006-21.965v-147.446c0-12.134 9.892-21.975 22.006-21.975 12.134 0 21.996 9.841 21.996 21.975v147.456c0.020 12.114-9.861 21.955-21.996 21.955zM537.836 258.835c-12.124 0-22.006-9.841-22.006-21.965v-147.446c0-12.134 9.882-21.975 22.006-21.975s22.006 9.841 22.006 21.975v147.456c0.010 12.114-9.882 21.955-22.006 21.955zM329.8 150.394c-12.134 0-22.026-9.83-22.026-21.965v-147.425c0-12.134 9.902-21.975 22.026-21.975 12.114 0 22.006 9.841 22.006 21.975v147.436c-0.010 12.134-9.892 21.955-22.006 21.955zM728.975 150.394c-12.124 0-22.026-9.83-22.026-21.965v-147.425c0-12.134 9.912-21.975 22.026-21.975s21.996 9.841 21.996 21.975v147.436c0.010 12.134-9.882 21.955-21.996 21.955zM928.471 258.835c-12.104 0-21.996-9.841-21.996-21.965v-147.446c0-12.134 9.902-21.975 21.996-21.975 12.134 0 22.006 9.841 22.006 21.975v147.456c0 12.114-9.882 21.955-22.006 21.955zM846.070 693.892c-26.081 140.114-148.419 243.067-293.693 243.067-129.208 0-241.418-81.306-282.47-200.94-15.053 3.533-30.484 5.315-46.029 5.315-110.715 0-200.847-89.866-200.847-200.417 0-110.213 88.003-198.226 200.847-200.325h610.929c90.132 0 166.154 81.213 166.154 177.388 0 90.081-67.604 164.731-154.89 175.913z" />
<glyph unicode="&#xe64a;" glyph-name="screen" d="M47.923 789.155c-7.444 0-13.537-6.093-13.537-13.548v-655.237c0-7.455 6.103-13.537 13.537-13.537h928.154c7.444 0 13.537 6.093 13.537 13.537v655.247c0 7.455-6.103 13.537-13.537 13.537h-928.154zM921.395 200.877c0-7.434-6.103-13.537-13.537-13.537h-791.695c-7.455 0-13.537 6.113-13.537 13.537v499.763c0 7.455 6.103 13.537 13.537 13.537h791.695c7.444 0 13.537-6.103 13.537-13.537v-499.763z" />
<glyph unicode="&#xe64b;" glyph-name="search" d="M985.037 51.752l-242.903 242.893c51.19 67.277 81.981 150.907 81.981 241.797 0 220.846-179.692 400.507-400.558 400.507-220.877 0.010-400.517-179.651-400.517-400.497 0-220.836 179.64-400.507 400.507-400.507 90.849 0 174.428 30.761 241.715 81.9l242.944-242.883c10.598-10.629 24.525-15.923 38.41-15.923 13.916 0 27.822 5.294 38.42 15.923 21.238 21.228 21.238 55.603 0 76.79zM131.676 536.452c0 160.901 130.939 291.85 291.86 291.85 160.963 0 291.932-130.959 291.932-291.85 0-75.766-29.256-144.66-76.79-196.588-3.768-2.243-7.373-4.823-10.598-8.049-3.215-3.205-5.775-6.789-8.028-10.547-51.927-47.432-120.781-76.657-196.506-76.657-160.932-0.010-291.871 130.918-291.871 291.84z" />
<glyph unicode="&#xe64c;" glyph-name="seat-windowless" d="M63.724 936.959l-40.684-40.684 937.247-937.236 40.673 40.684-937.236 937.236zM345.293 770.457l-166.482 166.502-40.714-40.684 166.513-166.492 40.684 40.673z" />
<glyph unicode="&#xe64d;" glyph-name="seat-windowless-priority" d="M138.117 896.265l156.324-156.324c15.462 11.991 31.744 22.948 49.070 32.297l-164.7 164.721-40.694-40.694zM23.040 896.265l212.91-212.9c12.165 14.879 25.702 28.529 40.079 41.288l-212.296 212.306-40.694-40.694zM569.006 648.498h-202.199v-432.087h92.099v153.487h110.1c93.286 0 145.132 64.195 145.132 139.346 0 75.796-51.169 139.254-145.132 139.254zM556.667 450.938h-97.761v116.644h97.761c36.321 0 63.549-22.098 63.549-58.327 0-35.707-27.228-58.317-63.549-58.317zM780.595 220.077c-12.749-14.377-26.368-27.914-41.267-40.069l220.969-220.969 40.663 40.694-220.365 220.344z" />
<glyph unicode="&#xe64e;" glyph-name="print" d="M770.304 273.223h-496.497l-13.066-42.506-89.549-291.041h701.614l-102.502 333.548zM942.141 678.471l-179.558-1.065v208.005c0 38.973-31.918 70.922-71.025 70.922h-359.066c-39.045 0-71.055-31.959-71.055-70.932l-0.051-206.93h-179.476c-39.045 0-71.045-31.959-71.045-70.943v-345.958h100.219c60.099 0 63.027 21.883 70.717 48.558 7.68 26.778 45.906 48.65 85.012 48.65h498.207c39.055 0 77.322-21.873 85.002-48.65 7.68-26.675 9.544-48.558 70.779-48.558l92.344 1.065v344.904c0.010 38.984-31.908 70.932-71.004 70.932zM855.183 522.249c-41.021 0-74.496 16.712-74.496 37.13 0 20.408 33.485 37.11 74.496 37.11 41.001 0 74.476-16.712 74.476-37.11 0-20.419-33.475-37.13-74.476-37.13z" />
<glyph unicode="&#xe64f;" glyph-name="success" d="M512.031 933.119c-267.991 0-485.151-217.19-485.151-485.171 0-267.878 217.16-485.069 485.151-485.069 267.858 0 485.089 217.19 485.089 485.069 0 267.981-217.231 485.171-485.089 485.171zM749.629 530.687l-294.113-291.246c-20.89-20.869-55.091-20.869-75.991 0l-105.216 106.947c-20.89 20.879-22.927 53.125-4.495 71.567 18.432 18.422 50.647 16.374 71.537-4.516l51.128-56.422c20.89-20.879 26.44-20.879 47.319 0l242.801 240.681c20.89 20.92 53.125 22.886 71.537 4.465 18.432-18.473 16.394-50.606-4.506-71.475z" />
<glyph unicode="&#xe650;" glyph-name="sunny" d="M174.991 428.912c0 13.466-11.028 24.392-24.607 24.392h-125.768c-13.609 0-24.617-10.926-24.617-24.392s11.008-24.361 24.617-24.361h125.768c13.578 0 24.607 10.885 24.607 24.361zM226.755 216.647l-84.070-84.654c-9.513-9.605-9.411-24.986 0.276-34.447 4.823-4.669 11.008-7.004 17.265-7.004 6.359 0 12.749 2.396 17.541 7.281l84.091 84.623c9.513 9.605 9.411 25.047-0.297 34.499-9.718 9.4-25.283 9.359-34.806-0.297zM226.755 679.382c4.823-4.854 11.213-7.27 17.562-7.27 6.236 0 12.442 2.324 17.244 7.004 9.718 9.452 9.81 24.873 0.297 34.478l-84.091 84.634c-9.574 9.646-25.139 9.687-34.806 0.287-9.687-9.452-9.789-24.873-0.276-34.478l84.070-84.654zM504.699 785.008c13.599 0 24.607 10.895 24.607 24.371v126.249c0 13.476-11.008 24.371-24.607 24.371-13.629 0-24.637-10.895-24.637-24.371v-126.249c0-13.476 11.008-24.371 24.637-24.371zM760.545 690.81c6.328 0 12.749 2.427 17.541 7.281l84.122 84.644c9.523 9.605 9.452 25.027-0.266 34.478-9.718 9.411-25.293 9.37-34.806-0.287l-84.122-84.644c-9.544-9.595-9.441-25.016 0.276-34.478 4.823-4.649 11.008-6.994 17.254-6.994zM778.086 197.897c-9.605 9.605-25.19 9.697-34.796 0.246-9.718-9.452-9.82-24.883-0.276-34.468l84.122-84.521c4.854-4.864 11.203-7.281 17.541-7.281 6.257 0 12.503 2.324 17.275 7.035 9.718 9.441 9.789 24.873 0.266 34.458l-84.132 84.531zM504.699 111.062c-13.629 0-24.637-10.906-24.637-24.392v-126.269c0-13.486 11.008-24.402 24.637-24.402 13.599 0 24.607 10.906 24.607 24.402v126.269c0 13.476-11.008 24.392-24.607 24.392zM999.404 453.303h-125.706c-13.578 0-24.607-10.916-24.607-24.392s11.028-24.361 24.607-24.361h125.696c13.599 0 24.596 10.885 24.596 24.361s-10.988 24.392-24.586 24.392zM512.041 719.574c-149.699 0-271.473-121.815-271.473-271.544 0-149.688 121.784-271.483 271.473-271.483 149.647 0 271.401 121.805 271.401 271.483 0 149.74-121.754 271.544-271.401 271.544z" />
<glyph unicode="&#xe651;" glyph-name="swim-25" d="M643.564 6.419c-20.398 0-58.808 0-100.475 0v340.736h12.626c17.736 0 117.463 57.518 117.463 146.698v443.105h-322.406v-443.116c0-85.361 98.703-146.698 116.347-146.698h13.742v-340.756c-43.786 0-83.159 0-100.465 0-41.687 0-59.187-47.36-59.187-47.36h381.583c0 0.010-7.158 47.391-59.228 47.391z" />
<glyph unicode="&#xe652;" glyph-name="swim-36" d="M678.615 348.169l-273.469 309.658c0 0-10.056 17.879-37.069 10.445-70.226-19.354-269.527-100.301-325.97-119.634-57.139-19.589-32-85.197 18.35-69.048 34.458 11.049 247.020 88.146 269.148 93.798 15.114 3.86 22.62-9.779 22.62-9.779l34.355-47.821-330.445-138.045c11.244-40.335 46.326-69.489 87.808-69.489l461.455 0.911c29.942-0.010 56.556 15.401 73.216 39.004zM709.007 418.733c58.010 0 104.98 46.95 104.98 104.868 0 57.651-46.981 104.53-104.98 104.53-57.866 0-104.837-46.879-104.837-104.53 0-57.917 46.971-104.868 104.837-104.868zM875.868 325.57c0 0-59.228-109.865-149.74-11.633 0 0-33.874-71.322-153.815-58.952 0 0 72.591-63.027 153.815-3.461 112.681-61.225 149.74 11.612 149.74 11.612s95.805-47.749 138.752 23.634c0 0-81.224-35.246-138.752 38.799z" />
<glyph unicode="&#xe653;" glyph-name="tax" d="M717.025 363.161c-11.602 22.057-27.525 41.103-47.391 56.678-18.78 14.643-40.899 27.187-65.72 37.243-17.162 6.973-35.645 13.865-55.204 20.572v257.751c18.872-2.284 36.403-6.881 52.316-13.793 23.245-10.066 41.452-23.593 55.685-41.39 4.895-6.103 12.032-9.912 19.825-10.588 7.711-0.645 15.483 1.884 21.289 7.035l15.514 13.691c11.459 10.086 12.902 27.361 3.379 39.25-23.265 28.877-52.869 50.145-88.095 63.181-25.088 9.277-51.866 15.135-79.923 17.48v113.51c0 15.77-12.759 28.539-28.508 28.539h-20.060c-15.739 0-28.518-12.769-28.518-28.539v-117.012c-17.971-3.359-35.011-8.305-50.79-14.817-23.736-9.779-44.687-22.938-62.29-39.158-18.033-16.579-32.246-36.485-42.342-59.126-10.097-22.743-15.217-48.282-15.217-75.93 0-30.075 4.997-56.422 14.828-78.316 9.871-21.914 24.074-41.155 42.291-57.17 17.285-15.217 37.97-28.283 61.45-38.82 16.179-7.291 33.608-14.172 52.070-20.593v-260.598c-16.742 3.164-33.413 8.376-49.828 15.657-25.631 11.356-48.333 27.924-67.451 49.162-10.445 11.581-28.344 12.616-40.090 2.284l-15.544-13.681c-11.756-10.404-12.892-28.396-2.54-40.202 24.484-27.884 54.262-49.961 88.556-65.536 26.429-12.022 55.532-19.855 86.866-23.378v-114.34c0-15.739 12.79-28.518 28.518-28.518h20.091c15.759 0 28.529 12.8 28.529 28.518v114.811c18.934 2.54 37.069 6.82 54.252 12.8 26.081 9.001 49.152 21.975 68.536 38.564 19.814 16.916 35.523 37.898 46.653 62.321 11.11 24.34 16.722 51.937 16.722 82.104 0 30.628-6.011 57.651-17.859 80.353zM471.634 503.838c-5.468 2.171-10.834 4.424-16.128 6.769-15.319 6.738-29.102 15.268-40.98 25.313-11.213 9.533-20.009 20.582-26.88 33.823-6.339 12.227-9.554 28.088-9.554 47.104 0 18.012 3.297 33.894 9.851 47.206 6.861 13.998 15.657 25.549 26.86 35.287 11.571 10.066 25.016 18.237 39.956 24.32 5.519 2.243 11.151 4.188 16.865 5.847v-225.669zM647.229 231.894c-7.096-15.155-16.425-27.505-28.539-37.663-12.605-10.578-27.525-19.057-44.319-25.16-8.284-3.021-16.835-5.335-25.651-7.055v235.899c7.444-2.724 14.868-5.54 22.17-8.417 17.531-6.902 33.188-15.575 46.51-25.784 12.564-9.615 22.405-20.716 29.993-33.935 6.902-12.001 10.373-27.525 10.373-46.060 0-19.415-3.533-36.823-10.537-51.825z" />
<glyph unicode="&#xe654;" glyph-name="television" d="M900.823 830.422h-777.595c-53.699 0-97.198-42.824-97.198-95.601v-573.645c0-52.767 43.5-95.601 97.198-95.601h777.585c53.719 0 97.157 42.834 97.157 95.601v573.645c0.010 52.767-43.438 95.601-97.147 95.601zM900.823 256.798h-777.595v478.024h777.585l0.010-478.024z" />
<glyph unicode="&#xe655;" glyph-name="tooltip" d="M511.98 927.354c-264.714 0-479.334-214.61-479.334-479.355 0.010-264.714 214.63-479.355 479.345-479.355 264.755 0 479.375 214.641 479.375 479.365-0.020 264.735-214.62 479.345-479.386 479.345zM513.741 177.243c-34.56 0-63.621 29.061-63.621 63.621s29.061 63.621 63.621 63.621c34.58 0 63.601-29.061 63.601-63.621s-29.041-63.621-63.601-63.621zM547.523 404.182c0-12.564 6.277-25.917 14.1-32.983l-85.555-25.078c-16.497 18.002-25.907 41.605-25.907 69.018 0 93.46 114.627 104.468 114.627 158.618 0 24.351-18.043 44.749-61.256 44.749-39.229 0-72.192-19.62-96.543-48.671l-63.621 71.444c41.605 48.681 104.448 76.134 171.93 76.134 101.253 0 163.328-51.016 163.328-124.047-0.010-114.606-131.103-123.249-131.103-189.184z" />
<glyph unicode="&#xe656;" glyph-name="twitter" d="M0 151.049c92.948-55.020 203.397-87.142 321.997-87.142 390.103 0 610.396 304.097 597.146 576.881 41.052 27.32 76.646 61.45 104.847 100.362-37.704-15.421-78.203-25.866-120.699-30.536 43.407 24.003 76.698 62.013 92.396 107.284-40.602-22.221-85.596-38.38-133.396-47.053-38.349 37.683-92.959 61.245-153.395 61.245-135.608 0-235.254-116.808-204.646-238.121-174.602 8.079-329.349 85.289-432.947 202.609-55.050-87.163-28.611-201.196 64.993-258.888-34.447 0.993-66.898 9.718-95.201 24.259-2.304-89.836 67.502-173.834 168.499-192.625-29.553-7.404-61.901-9.114-94.853-3.277 26.757-77.066 104.356-133.1 196.26-134.656-88.3-63.928-199.598-92.467-310.999-80.343z" />
<glyph unicode="&#xe657;" glyph-name="user" d="M1000.95 148.459c-21.371 109.875-314.46 98.171-385.096 184.207-14.889 18.145-14.889 18.145-4.864 85.576 17.009 75.459 32.451 28.641 56.842 179.18 20.449 126.423-23.235 235.049-155.843 235.049-132.618 0-176.302-108.626-155.822-235.049 24.34-150.538 39.793-103.721 56.842-179.18 10.015-67.43 10.015-67.43-4.884-85.576-70.636-86.036-363.735-74.332-385.065-184.207-2.54-13.025-14.346-84.941-14.346-84.941h1006.561c0 0-11.817 71.916-14.326 84.941z" />
<glyph unicode="&#xe658;" glyph-name="weibo" d="M758.825 462.765c-13.834 4.137-23.316 6.973-16.067 25.139 15.688 39.485 17.316 73.544 0.287 97.843-31.898 45.558-119.173 43.11-219.197 1.219 0 0.051-31.427-13.752-23.388 11.182 15.38 49.469 13.056 90.89-10.885 114.821-54.262 54.313-198.605-2.058-322.386-125.788-92.672-92.682-146.493-190.935-146.493-275.896 0-162.499 208.374-261.284 412.242-261.284 267.223 0 445 155.249 445 278.528-0.010 74.476-62.74 116.756-119.112 134.236zM433.48 108.236c-162.673-16.036-303.084 57.467-313.661 164.26-10.557 106.803 112.783 206.397 275.425 222.474 162.683 16.108 303.104-57.436 313.661-164.209 10.537-106.813-112.742-206.438-275.425-222.525zM936.305 760.135c-64.532 71.537-159.734 98.816-247.603 80.138h-0.041c-20.296-4.342-33.28-24.34-28.908-44.646 4.321-20.296 24.32-33.28 44.657-28.938 62.484 13.261 130.12-6.164 176.026-56.975 45.834-50.811 58.276-120.125 38.625-180.9l0.031-0.020c-6.41-19.804 4.424-40.98 24.238-47.37 19.763-6.4 40.96 4.434 47.37 24.166v0.143c27.546 85.494 10.158 182.927-54.395 254.403zM716.585 709.682c-17.5-3.727-28.652-20.951-24.893-38.472 3.738-17.428 20.951-28.641 38.39-24.842v-0.020c20.931 4.424 43.633-2.028 58.993-19.026 15.38-17.050 19.507-40.264 12.913-60.631h0.020c-5.468-16.998 3.809-35.267 20.828-40.796 17.019-5.448 35.287 3.84 40.786 20.879 13.455 41.646 5.048 89.098-26.44 123.945-31.416 34.806-77.783 48.056-120.596 38.963zM449.731 412.784c-77.414 20.152-164.905-18.422-198.523-86.641-34.243-69.55-1.126-146.78 77.066-172.042 81.029-26.112 176.497 13.926 209.705 88.996 32.737 73.4-8.141 148.992-88.248 169.687zM390.615 235.12c-15.729-25.078-49.428-36.086-74.813-24.504-25.006 11.387-32.389 40.55-16.64 65.034 15.544 24.371 48.087 35.236 73.288 24.668 25.477-10.875 33.628-39.834 18.166-65.198zM442.45 301.68c-5.693-9.759-18.268-14.428-28.119-10.373-9.697 3.983-12.739 14.848-7.24 24.422 5.673 9.533 17.766 14.172 27.433 10.342 9.841-3.604 13.363-14.623 7.926-24.392z" />
<glyph unicode="&#xe659;" glyph-name="wifi" d="M515.758 130.835c-14.029 0-26.716-5.683-35.891-14.899-9.165-9.196-14.838-21.924-14.838-35.922 0-28.119 22.682-50.903 50.729-50.903 28.027 0 50.739 22.804 50.739 50.903 0 13.998-5.673 26.716-14.858 35.922-9.185 9.226-21.862 14.899-35.881 14.899zM515.758 371.015c-67.379 0-130.734-26.296-178.391-74.056-19.272-19.302-19.272-50.596 0-69.898 19.241-19.323 50.524-19.323 69.775 0 29 29.061 67.594 45.076 108.626 45.076 40.991 0 79.606-16.036 108.687-45.138 9.646-9.636 22.241-14.438 34.867-14.438s25.293 4.844 34.918 14.52c19.241 19.343 19.2 50.657-0.082 69.939-47.718 47.698-111.084 73.994-178.401 73.994zM515.758 624.864c-117.146 0-231.404-41.093-321.638-115.722-21.012-17.367-23.992-48.548-6.646-69.612 9.779-11.858 23.88-17.981 38.083-17.981 11.059 0 22.19 3.717 31.386 11.336 72.591 60.027 164.485 93.092 258.806 93.092s186.235-33.065 258.775-93.092c21.053-17.398 52.101-14.418 69.437 6.636 17.347 21.074 14.387 52.234-6.615 69.622-90.173 74.629-204.39 115.722-321.587 115.722zM987.945 698.408c-132.772 108.636-300.462 168.479-472.187 168.479-175.493 0-346.010-62.198-480.225-175.135-20.859-17.572-23.583-48.763-6.052-69.673 9.738-11.653 23.726-17.654 37.796-17.654 11.203 0 22.446 3.799 31.713 11.581 116.429 97.997 264.438 151.972 416.768 151.972 149.043 0 294.564-51.907 409.784-146.176 21.084-17.254 52.204-14.141 69.386 7.035 17.275 21.146 14.111 52.285-6.984 69.571z" />
<glyph unicode="&#xe65a;" glyph-name="youtube" d="M985.385 678.737c-12.012 51.907-54.682 90.194-106.025 95.918-121.58 13.517-244.644 21.965-367.278 21.893-122.491 0.061-245.617-8.376-367.196-21.893-51.384-5.724-94.054-44.012-106.025-95.918-17.050-73.943-17.254-154.593-17.254-230.748 0-76.114 0-156.815 17.050-230.728 11.971-51.886 54.641-90.204 106.035-95.887 121.539-13.548 244.654-21.975 367.196-21.924 122.573-0.051 245.688 8.366 367.237 21.924 51.354 5.693 94.054 44.001 106.004 95.887 17.060 73.912 17.265 154.614 17.265 230.728s0.092 156.805-17.009 230.748zM679.188 425.389l-231.178-124.938c-22.999-12.452-41.81-1.208-41.81 24.904v245.279c0 26.122 18.821 37.335 41.81 24.934l231.178-124.979c23.050-12.401 23.050-32.758 0-45.199z" />
<glyph unicode="&#xe65b;" glyph-name="adventure" d="M509.747 854.466c3.86 50.821 48.364 88.627 98.775 84.787 50.924-4.198 88.791-48.333 84.89-99.154-4.219-50.811-48.404-88.658-99.226-84.429-50.821 3.85-88.658 48.312-84.439 98.796zM447.099 522.761l-65.485-316.805-100.874-169.247c-2.98-5.99-6.554-14.653-7.168-22.999-2.396-29.245 19.415-54.958 48.927-57.037 20.623-1.772 38.861 9.011 49.572 25.692l108.677 182.989c2.109 4.782 9.544 16.732 10.414 22.374l26.276 120.607 74.066-117.504 35.533-185.979c5.642-22.118 23.593-40.008 47.749-42.107 29.235-2.079 54.927 19.415 57.006 48.968 0.297 3.543-0.256 6.257 0 10.762l-37.581 198.502c-1.167 5.97-3.287 11.95-6.574 16.998l-100.055 158.085 35.635 156.396 29.542-58.767c2.355-3.881 5.356-7.455 8.94-10.445l117.924-81.193c5.376-2.386 10.168-4.823 16.138-5.069 19.405-1.823 36.434 12.82 37.888 32.215 1.208 12.554-4.475 23.89-13.752 31.058l-108.032 74.322-79.104 157.020c-13.435 20.316-35.625 37.018-62.515 39.086-20.859 1.823-41.062 6.113-60.805-5.868 0 0-27.085-19.354-36.721-82.524l-25.62-119.532zM790.2-38.667l27.587 0.051-0.358 639.181-27.638-0.092 0.41-639.14zM458.68 692.694c4.721 18.278-6.318 36.956-24.627 41.708h-109.087c-18.33 4.721-53.299-21.34-57.999-39.67l-75.684-216.248c-4.71-18.299 6.328-36.977 24.648-41.728l132.7-34.161c18.319-4.68 36.997 6.328 41.718 24.658l68.332 265.441z" />
<glyph unicode="&#xe65c;" glyph-name="beaches" d="M941.066 715.806c-21.862 42.301-84.603 107.95-210.033 109.414-125.44 1.464-224.625-94.812-224.625-94.812s42.291 141.476-137.114 198.359c-107.94 36.475-185.242-42.281-185.242-42.281s80.23 11.663 141.947-15.677c52.081-23.071 97.27-112.701 97.27-112.701-49.592 62.72-103.557 58.358-147.323 56.904-43.756-1.464-68.547-5.827-142.95-52.521-74.373-46.684-61.245-122.501-61.245-122.501s46.664 86.036 180.859 87.501c134.195 1.464 181.596-106.025 181.596-106.025l0.225-0.092c-0.061-0.092-0.225-0.328-0.225-0.328s-30.628-32.543-94.075-281.948c-63.447-249.416 0-382.618 0-382.618h157.901c0 0-51.61 66.099-70.39 231.004-12.964 113.838 50.903 329.626 64.164 422.431 39.7 5.652 134.717 12.79 210.074-31.068 97.72-56.873 109.384-191.15 109.384-191.15s39.404 43.735 18.975 163.348c-20.419 119.593-182.333 151.675-182.333 151.675s87.521 62.7 191.089 41.759c103.557-20.941 109.394-80.763 109.394-80.763s14.582 9.81-7.322 52.091z" />
<glyph unicode="&#xe65d;" glyph-name="bus" d="M245.279 342.353c-43.899 0-79.657-35.738-79.657-79.657 0-43.899 35.758-79.596 79.657-79.596 43.868 0 79.585 35.697 79.585 79.596 0 43.909-35.717 79.657-79.585 79.657zM245.279 216.309c-25.61 0-46.428 20.818-46.428 46.377 0 25.6 20.818 46.377 46.428 46.377 25.539 0 46.377-20.777 46.377-46.377 0-25.559-20.838-46.377-46.377-46.377zM748.964 342.353c-43.919 0-79.596-35.738-79.596-79.657 0-43.899 35.676-79.596 79.596-79.596s79.636 35.697 79.636 79.596c0 43.909-35.717 79.657-79.636 79.657zM748.964 216.309c-25.569 0-46.397 20.818-46.397 46.377 0 25.6 20.828 46.377 46.397 46.377s46.397-20.777 46.397-46.377c0-25.559-20.828-46.377-46.397-46.377zM975.094 393.809h-16.783c0 108.442 0 271.104 0 271.104s5.581 48.005-54.702 48.005h-536.842c-36.813 0-59.136 0-59.136 0s-26.716-0.819-39.066-30.126l-101.816-166.83c0 0-47.227-12.585-48.671-12.861-36.844-7.537-60.006-34.263-69.745-82.985l-16.179-112.261c0 0-10.168-52.982 72.673-52.982h28.59c-0.164 2.642-0.379 5.202-0.379 7.823 0 61.962 50.371 112.364 112.374 112.364 61.932 0 112.364-50.401 112.364-112.364 0-2.621-0.225-5.181-0.43-7.823h279.562c-0.174 2.642-0.379 5.202-0.379 7.823 0 61.962 50.412 112.364 112.343 112.364 61.993 0 112.415-50.401 112.415-112.364 0-2.621-0.215-5.181-0.399-7.823h47.186c0 0 50.248-5.56 50.248 54.743v10.957h16.783c9.462 0 17.162 7.68 17.162 17.142v38.963c-0.020 9.452-7.721 17.132-17.172 17.132zM432.445 386.948c-15.258 0-27.617 12.401-27.617 27.617v28.539c0 15.217 12.37 27.576 27.617 27.576v-83.732zM433.756 649.072c0 0 0-93.501 0-118.436 0-21.32-17.654-19.763-17.654-19.763h-169.912c-24.924 0-11.366 22.385-11.366 22.385s64.973 103.864 71.711 117.381c6.748 13.527 18.176 12.462 18.176 12.462s67.953 0 90.89 0c20.234-0.010 18.156-14.029 18.156-14.029zM909.466 527.195c0-9.472-7.68-17.152-17.142-17.152h-395.643c-9.472 0-17.172 7.68-17.172 17.152v118.262c0 9.472 7.69 17.152 17.172 17.152h395.653c9.462 0 17.142-7.68 17.142-17.152v-118.262z" />
<glyph unicode="&#xe65e;" glyph-name="chat" d="M983.040 82.431c-23.552 122.88-275.456 109.568-354.304 206.848-16.384 20.48-16.384 20.48-6.144 93.184-1.024 0-3.072 0-4.096 0h-66.56c-27.648 0-49.152 25.6-49.152 59.392 0 32.768 21.504 59.392 49.152 59.392h66.56c12.288 0 23.552-5.12 31.744-14.336h1.024c2.048 1.024 9.216 3.072 15.36 5.12 6.144 20.48 12.288 49.152 19.456 94.208 22.528 141.312-25.6 263.168-174.080 263.168s-197.632-121.856-174.080-263.168c27.648-168.96 45.056-115.712 63.488-200.704 11.264-75.776 11.264-75.776-5.12-96.256-79.872-97.28-330.752-83.968-355.328-206.848-2.048-14.336-15.36-95.232-15.36-95.232h973.824c-1.024 0-14.336 80.896-16.384 95.232zM785.408 644.607v-73.728c0-15.36-13.312-28.672-28.672-29.696-8.192-48.128-44.032-88.064-93.184-106.496-4.096-2.048-8.192-3.072-13.312-4.096-4.096-1.024-9.216-2.048-13.312-3.072 0 1.024 1.024 2.048 1.024 3.072-1.024-1.024-1.024-2.048-2.048-3.072 0 0 1.024 0 1.024 0-2.048-7.168-6.144-13.312-11.264-16.384-2.048-1.024-5.12-2.048-8.192-2.048h-66.56c-11.264 0-21.504 14.336-21.504 31.744s10.24 31.744 21.504 31.744h66.56c9.216 0 16.384-8.192 19.456-20.48 4.096 1.024 8.192 2.048 11.264 3.072 1.024 0 2.048 1.024 4.096 1.024 2.048 1.024 5.12 2.048 7.168 3.072 0 0 0 0 0 0 5.12 2.048 9.216 4.096 13.312 6.144 29.696 16.384 51.2 43.008 57.344 74.752h-13.312v133.12h11.264c-6.144 70.656-25.6 143.36-101.376 182.272l10.24 20.48c72.704-36.864 108.544-104.448 115.712-202.752 19.456 1.024 32.768-12.288 32.768-28.672zM637.952 430.591c0-1.024 0-2.048-1.024-3.072 0 0-1.024 0-1.024 0 1.024 1.024 1.024 2.048 2.048 3.072zM638.976 877.055l-10.24-20.48c-7.168 4.096-15.36 8.192-24.576 11.264-17.408 6.144-35.84 11.264-56.32 14.336-13.312 2.048-27.648 3.072-41.984 3.072-1.024 0-1.024 0-2.048 0-110.592 0-199.68-64.512-217.088-209.92h20.48v-133.12h-35.84c-17.408 0-30.72 13.312-30.72 29.696v73.728c0 13.312 9.216 24.576 22.528 28.672 17.408 162.816 119.808 235.52 243.712 234.496 15.36 0 30.72-1.024 45.056-4.096 20.48-3.072 40.96-8.192 60.416-16.384 9.216-3.072 18.432-7.168 26.624-11.264z" />
<glyph unicode="&#xe65f;" glyph-name="cultural" d="M1003.52 664.124l-983.040-0.020 491.52 145.408 491.52-145.388zM120.084 172.973h781.691v54.139h-781.691v-54.139zM57.969 86.476h908.032v53.432h-908.032v-53.432zM759.296 274.697h98.519v332.237h-98.519v-332.237zM561.428 274.697h98.499v332.237h-98.499v-332.237zM364.442 274.697h98.499v332.237h-98.499v-332.237zM166.185 274.697h98.499v332.237h-98.499v-332.237z" />
<glyph unicode="&#xe660;" glyph-name="desk-phone" d="M993.423 113.561c-55.675-133.499-186.235-156.897-228.905-156.897-12.534 0-207.626-10.342-488.11 255.713-225.71 214.088-253.297 444.324-255.693 488.069-2.345 42.609 9.851 149.504 156.897 228.915 18.217 9.841 54.344 14.193 63.672 4.874 4.147-4.137 127.56-207.227 130.796-213.955 3.246-6.717 4.874-13.332 4.874-19.814 0-9.277-6.615-20.879-19.845-34.785-13.22-13.916-27.587-26.675-43.131-38.267-15.544-11.602-29.911-23.89-43.141-36.874-13.22-12.984-19.835-23.665-19.835-32.010 0.901-21.658 18.647-99.236 153.856-218.030 135.24-118.845 200.387-152.32 206.633-154.644 6.267-2.314 11.489-3.461 15.647-3.461 8.356 0 19.016 6.605 32.010 19.825s56.648 73.073 70.564 86.282c13.906 13.22 25.508 19.825 34.785 19.825 6.502 0 13.097-1.618 19.814-4.874 6.738-3.226 210.084-122.225 213.975-126.198 10.568-10.834 3.103-44.585-4.864-63.693z" />
<glyph unicode="&#xe661;" glyph-name="external-link" d="M579.103 632.964l121.16-122.071 200.305 202.158 102.953-106.066-0.113 325.704h-325.642l101.878-100.168zM703.14 140.809h-505.16v491.51h255.785l198.236 204.81h-631.521v-873.82h860.17v626.831l-177.51-208.906z" />
<glyph unicode="&#xe662;" glyph-name="family" d="M217.364 292.72v-252.713c0-9.861-3.205-18.104-9.359-24.044-6.164-6.257-14.182-9.257-24.044-9.257-9.902 0-18.391 2.97-25.037 9.257-7.035 5.939-10.342 14.182-10.342 24.044v252.713h-94.618l98.488 332.759h-16.947c-10.803-37.386-19.896-67.348-26.993-91.105-6.492-23.757-13.588-46.172-19.732-67.84-7.086-21.32-11.735-34.898-12.278-39.547-4.229-14.121-13.558-20.951-28.221-20.951l-7.465 1.884c-13.722 4.936-20.337 13.844-20.337 26.399 0 3.461 0.471 6.287 1.915 9.124 0.922 2.437 3.758 10.824 7.086 24.975 3.758 14.121 8.899 31.59 15.043 51.917 6.154 20.644 12.759 43.059 19.784 67.031 7.117 24.074 13.629 47.309 21.668 69.724 4.762 17.142 15.063 32.737 31.13 46.244 15.985 14.039 32.532 20.357 49.889 20.357h115.886c17.889 0 35.297-6.328 50.872-20.357 15.135-13.507 26.020-29.102 32.102-46.244 6.472-22.415 13.148-45.65 19.692-69.724 6.697-23.972 13.773-46.387 19.446-67.031 6.011-20.326 11.264-37.796 14.991-51.917 3.686-14.152 6.124-22.538 7.475-24.975l1.894-7.496c0-15.176-7.086-24.074-20.716-28.068l-7.107-1.843c-14.991 0-24.515 6.83-28.232 20.951-1.004 4.649-5.212 18.227-10.813 39.547-6.605 21.678-13.281 44.083-20.767 67.84-7.496 23.757-16.415 53.719-27.228 91.105h-16.998l98.345-332.759h-93.143v-252.713c0-9.861-2.826-18.104-10.394-24.044-6.625-6.257-14.664-9.257-24.484-9.257-10.435 0-17.951 2.97-24.494 9.257-6.185 5.939-8.919 14.182-8.919 24.044v252.713h-17.039zM226.775 744.549c19.835 0 36.844 6.492 50.012 20.111 13.629 13.896 20.705 31.181 20.705 52.060 0 19.855-7.076 36.864-20.705 50.893-13.169 14.438-30.177 21.668-50.012 21.668-21.135 0-38.625-7.229-53.207-21.668-14.182-14.039-21.115-31.037-21.115-50.893 0-20.879 6.932-38.134 21.115-52.060 14.572-13.619 32.061-20.111 53.207-20.111zM749.189 725.861c-25.426 0-47.104-9.39-65.516-27.535-18.35-18.893-27.832-40.96-27.832-65.464v-226.836c0-8.479 2.918-16.261 9.462-22.374 6.062-6.164 13.629-8.909 22.2-8.909 9.871 0 17.428 2.755 23.511 8.909 5.274 6.113 8.028 13.885 8.028 22.374v202.803h16.466v-561.562c0-10.752 4.741-20.685 13.681-28.457 8.438-8.479 18.34-12.093 29.604-12.093 12.278 0 22.221 3.615 30.167 12.093 8.468 7.782 12.339 17.705 12.339 28.457v325.571h18.309v-325.581c0-10.752 4.229-20.685 12.216-28.457 8.008-8.479 18.442-12.093 31.181-12.093 10.783 0 20.193 3.615 28.744 12.093 7.905 7.782 11.602 17.705 11.602 28.457v561.562h17.080v-202.793c0-8.479 2.755-16.261 8.428-22.374 6.697-6.164 14.561-8.909 23.071-8.909 9.933 0 17.5 2.755 23.173 8.909 5.13 6.113 8.417 13.896 8.417 22.374v226.816c0 24.504-8.909 46.582-27.351 65.454-17.94 18.176-39.526 27.546-65.874 27.546l-161.106 0.020zM830.188 744.549c19.784 0 37.192 6.492 51.302 20.111 14.070 13.896 21.187 31.181 21.187 52.060 0 19.855-7.117 36.864-21.187 50.893-14.111 14.438-31.519 21.668-51.302 21.668-20.716 0-38.216-7.229-51.436-21.668-14.029-14.039-20.654-31.037-20.654-50.893 0-20.879 6.615-38.134 20.654-52.060 13.261-13.619 30.72-20.111 51.436-20.111zM487.721 403.004c-15.575 0-28.867-5.765-40.161-16.855-11.244-11.602-17.039-25.119-17.039-40.131v-105.708c0-5.212 1.782-9.974 5.786-13.722 3.707-3.758 8.346-5.478 13.599-5.478 6.052 0 10.68 1.72 14.408 5.478 3.226 3.748 4.915 8.509 4.915 13.722v90.993h10.086v-299.745c0-6.605 2.908-12.677 8.387-17.449 5.171-5.181 11.233-7.393 18.135-7.393 7.537 0 13.619 2.212 18.493 7.393 5.192 4.772 7.557 10.854 7.557 17.449v155.116h11.223v-155.126c0-6.605 2.591-12.677 7.485-17.449 4.905-5.181 11.305-7.393 19.108-7.393 6.595 0 12.37 2.212 17.613 7.393 4.823 4.772 7.096 10.854 7.096 17.449v299.756h10.455v-90.993c0-5.212 1.7-9.974 5.181-13.722 4.116-3.758 8.929-5.478 14.141-5.478 6.103 0 10.732 1.72 14.203 5.478 3.144 3.748 5.161 8.509 5.161 13.722v105.708c0 15.012-5.468 28.529-16.763 40.11-10.998 11.121-24.218 16.855-40.356 16.855l-98.714 0.020zM537.354 414.453c12.134 0 22.794 3.983 31.427 12.339 8.632 8.499 12.984 19.087 12.984 31.908 0 12.145-4.352 22.579-12.984 31.181-8.643 8.837-19.302 13.271-31.427 13.271-12.687 0-23.419-4.434-31.519-13.271-8.602-8.602-12.646-19.036-12.646-31.181 0-12.81 4.055-23.368 12.646-31.908 8.11-8.366 18.821-12.339 31.519-12.339z" />
<glyph unicode="&#xe663;" glyph-name="festival-and-events" d="M455.67 294.399l-13.507 45.251c131.062 18.084 232.673 144.937 232.673 298.936 0 166.369-118.548 301.363-264.806 301.363-146.227 0-264.765-134.922-264.765-301.302 0-153.272 100.659-279.654 230.789-298.67l-11.684-45.578h91.3zM878.746 445.695c0 110.244-73.595 200.837-167.905 211.866 0.317-6.246 0.532-12.564 0.532-18.903 0-136.776-72.929-254.73-177.418-307.804 29.512-52.398 78.694-90.778 135.639-98.376l-10.281-30.239h64.563l-11.981 29.932c93.829 11.54 166.851 103.7 166.851 213.524zM416.123 273.919h-18.289c0 0 0.584-117.944 46.92-198.287 42.291-73.38 30.536-119.153 30.413-119.153h17.019c0.707 0 15.616 46.316-31.662 128.276-43.817 76.001-44.401 189.164-44.401 189.164zM682.404 161.279c0.072 0 6.124-66.304-29.716-103.926-43.981-46.131-35.942-100.874-35.604-100.874h18.156c-0.031 0-7.014 48.742 30.669 88.392 41.503 43.561 35 116.408 34.724 116.408h-18.227z" />
<glyph unicode="&#xe664;" glyph-name="flag" d="M211.63 939.519c-18.657 0-27.31 0-27.31-27.31v-788.48c-109.22-3.389-163.84-85.33-163.84-139.94 0-27.31 27.31-27.31 27.31-27.31h655.36c0 0 27.32 0 27.32 27.31 0 136.53-81.92 245.76-163.85 245.76-85.883 0-133.417-151.839-218.481-163.84-37.274-5.243-73.308 18.842-109.21 37.54v508.59l382.3 163.84-354.908 152.095c-20.552 8.817-41.042 11.745-54.692 11.745z" />
<glyph unicode="&#xe665;" glyph-name="halal" d="M911.002 362.894c42.414-16.886 102.758-13.568 102.758-13.568l-42.486-64.614c0 0-55.439 7.148-102.83-10.138-74.435-27.238-177.244-61.307-230.42-37.376-53.217 23.798-71.035 74.742-71.035 278.856 0 0-24.699-142.838-60.211-210.883-35.359-67.983-134.564-132.588-272.865-112.097 0 0 248.125 54.374 294.287 271.944 45.988 217.692 42.455 169.953 42.455 169.953s21.228 10.23 24.842-95.201c3.512-105.359 0-241.285 63.805-248.166 63.754-6.881 141.855-3.482 184.31 33.925 0 0-92.109 51.159-138.209 27.249-40.294-20.797-48.108-36.424-49.449-40.028 2.55 8.11 34.273 104.919 91.965 111.483 60.303 6.717 120.525-44.298 163.082-61.338zM294.164 298.352c14.234 33.956-10.66 217.713-10.66 265.349 0 47.483 17.695 74.732 17.695 74.732-24.73 13.65-42.383 74.885-42.383 74.885-7.209-17.029-31.959-54.395-31.959-54.395s70.892-336.835 24.75-377.467c-46.019-40.796-138.22-47.729-191.355-13.814-53.248 34.058 3.461 142.991 3.461 142.991-31.918-37.417-56.709-81.654-53.125-129.178 3.512-47.729 38.973-95.201 124.068-98.673 85.023-3.42 145.265 81.572 159.508 115.569zM400.517 461.577c38.963-27.167 60.262-112.251 60.262-112.251 21.258 190.444-152.381 244.859-152.381 244.859s-3.604-10.148 0-61.112c3.492-51.18 53.023-44.278 92.119-71.496z" />
<glyph unicode="&#xe666;" glyph-name="info-3" d="M512 939.519c-271.452 0-491.52-220.068-491.52-491.52s220.068-491.52 491.52-491.52c271.462 0 491.52 220.058 491.52 491.52s-220.058 491.52-491.52 491.52zM511.375 717.577c11.008 11.95 24.433 18.022 39.864 18.022 12.524 0 23.521-4.495 31.795-13.025 8.315-8.479 12.534-19.313 12.534-32.195 0-16.138-5.642-30.495-16.763-42.65-11.418-12.544-24.781-18.934-39.66-18.934-12.288 0-23.173 4.618-31.478 13.332-8.212 8.54-12.411 19.712-12.411 33.137 0 16.456 5.427 30.679 16.118 42.312zM593.254 254.483c-40.745-38.298-69.827-62.198-88.873-73.042-20.326-11.643-37.079-17.316-51.19-17.316-14.019 0-25.446 4.659-34.007 13.865-8.284 8.878-12.483 20.879-12.483 35.635 0 37.683 21.35 125.225 65.3 267.581 0.748 2.406 1.321 4.7 1.72 6.83-1.638-0.707-3.543-1.71-5.745-3.072-3.594-2.273-14.561-10.875-46.633-42.209-4.895-4.782-12.554-5.222-17.971-1.044l-18.975 14.684c-3.021 2.335-4.936 5.827-5.274 9.646-0.328 3.799 0.942 7.578 3.512 10.414 29.563 32.553 57.16 56.177 82.022 70.236 26.030 14.664 48.046 21.801 67.267 21.801 12.421 0 22.456-3.082 29.86-9.196 8.028-6.707 12.278-16.015 12.278-26.931 0-7.168-3.389-25.836-28.508-110.029-35.86-120.32-44.431-163.983-45.015-179.077 6.789 4.004 22.845 15.421 57.119 47.616 5.335 5.038 13.711 4.936 18.954-0.164l16.824-16.404c2.693-2.601 4.178-6.195 4.137-9.943-0.031-3.748-1.597-7.301-4.321-9.882z" />
<glyph unicode="&#xe667;" glyph-name="movie" d="M861.204 507.012h-743.25c-21.053 0-38.113-17.070-38.113-38.113v-476.436c0-21.053 17.070-38.124 38.113-38.124h743.25c21.053 0 38.124 17.070 38.124 38.124v476.436c-0.010 21.043-17.080 38.113-38.124 38.113zM842.138 11.519h-705.126v235.028h705.126v-235.028zM769.341 936.119l-719.032-188.191c-20.357-5.325-32.553-26.163-27.208-46.52l43.418-165.919c5.335-20.378 26.163-32.573 46.52-27.228l719.043 188.191c20.357 5.325 32.553 26.163 27.197 46.52l-43.407 165.929c-5.356 20.378-26.173 32.563-46.531 27.218zM504.627 807.751l86.036 22.518 2.181-137.329-86.057-22.518-2.161 137.329zM377.743 636.64l-76.81-20.101-2.15 137.329 76.8 20.101 2.161-137.329zM83.22 697.435l86.487 22.651 2.181-137.329-54.886-14.367-33.782 129.044zM799.15 746.946l-77.251-20.234-2.161 137.329 45.629 11.95 33.782-129.044z" />
<glyph unicode="&#xe668;" glyph-name="music" d="M335.124 583.187v-479.099c0.461-43.796-29.368-93.235-91.105-124.324-85.729-43.080-175.913-22.077-208.927 27.72-32.983 49.797-8.837 128.338 76.923 171.479 57.661 28.979 117.34 28.918 160.266 10.68v626.995l628.429 122.88v-774.175c0.358-43.735-29.46-93.123-91.085-124.14-85.791-43.080-175.944-22.077-208.957 27.72-32.952 49.797-8.827 128.328 76.902 171.479 57.682 28.979 117.34 28.918 160.287 10.68v430.367l-502.733-98.263z" />
<glyph unicode="&#xe669;" glyph-name="nature" d="M676.557 934.399c0-277.975-625.357-138.988-625.357-694.876 0-208.425 69.417-277.924 69.417-277.924h69.56c0 0-104.264 69.499-104.264 277.924 0 138.998 312.637 277.955 312.637 277.955s-277.248-150.333-277.248-293.059c442.44-69.356 687.38 445.706 555.254 709.98z" />
<glyph unicode="&#xe66a;" glyph-name="package" d="M665.312 857.535c3.904 51.2 48.736 89.248 99.488 85.376 51.296-4.224 89.408-48.672 85.504-99.872-4.256-51.2-48.768-89.312-99.936-85.056-51.2 3.872-89.312 48.672-85.056 99.52zM646.464 708.991c-28.32-35.68-111.392-140.16-115.328-144.32l-99.168-125.44c-1.056-1.472-1.952-2.72-2.592-4.064-9.984-17.216-4.448-38.944 12.8-48.896 15.904-9.28 36.16-3.36 47.072 10.4l84.608 107.744 52.576 66.208-90.176-366.24-101.6-170.464c-3.008-6.016-6.592-14.72-7.2-23.168-2.4-29.44 19.552-55.328 49.28-57.408 20.768-1.824 39.136 9.056 49.952 25.856l109.44 184.32c2.112 4.8 9.6 16.864 10.496 22.528l26.464 121.472 114.016-124.8 35.808-187.296c5.664-22.304 23.744-40.32 48.064-42.432 29.44-2.080 55.328 19.584 57.408 49.312 0.288 3.584-0.256 6.304 0 10.848l-37.856 199.936c-1.184 6.016-3.328 12.032-6.624 17.12l-140.224 165.696 35.904 157.536 29.76-59.2c2.4-3.904 5.408-7.488 9.024-10.496l118.784-81.792c5.44-2.4 10.24-4.832 16.256-5.088 19.52-1.824 36.672 12.896 38.176 32.448 1.216 12.64-4.512 24.064-13.856 31.264l-108.8 74.88-79.68 158.144c-13.536 20.448-35.872 37.28-62.976 39.36-20.992 1.824-41.344 6.144-61.248-5.92-0.032 0-12.672-10.56-18.56-17.952zM299.552 229.055l22.016-16.96 164.928 213.92-22.048 16.96-164.896-213.92zM124.8-13.345c0-18.688 15.168-33.856 33.888-33.856s33.824 15.168 33.824 33.856c0 18.688-15.136 33.856-33.824 33.856s-33.888-15.168-33.888-33.856zM40.192 102.079l-1.088-1.408c-10.944-13.984-8.448-34.208 5.536-45.152l68.448-53.408c6.464 19.040 24.352 32.896 45.6 32.896 18.496 0 34.368-10.496 42.464-25.728l169.344 216.832c10.912 13.984 8.416 34.208-5.568 45.152l-94.336 73.664c-13.984 10.912-34.176 8.416-45.152-5.536l-13.184-16.896-172.096-220.352zM301.376 320.831l30.432-23.776 10.624 12.16c0 0 10.144 10.592-7.040 23.84-15.872 12.192-23.936 1.28-23.936 1.28l-10.080-13.472z" />
<glyph unicode="&#xe66b;" glyph-name="pdf-1" d="M165.13 712.15c68.403 68.383 136.878 134.502 205.23 202.998v-202.998h-205.23zM860.058 919.039h-421.007v-275.63h-275.579v-666.45h697.057l-0.471 942.080zM779.94 256.91c0.276 1.7 0.276 10.168-25.457 18.401-20.337 6.513-58.399 6.349-104.059 1.454 52.787-25.815 104.253-38.656 120.535-30.956 4.014 1.956 8.806 8.561 8.806 8.561s-2.836-13.036-4.905-16.312c-2.662-3.553-7.793-7.414-12.677-8.673-25.764-6.922-92.785 9.021-151.235 42.404-65.26-9.605-136.899-27.341-194.365-46.244-56.463-98.98-98.929-144.415-133.427-127.099l-12.708 6.4c-5.151 2.918-5.949 10.117-4.762 16.005 4.035 19.681 28.733 49.336 78.316 78.961 5.356 3.267 29.153 15.821 29.153 15.821s-17.633-17.019-21.74-20.378c-39.557-32.461-68.823-73.277-68.076-89.088l0.123-1.413c33.679 4.762 84.101 73.277 148.982 200.202 15.667 30.74 33.556 65.444 47.831 100.291l5.673 13.763c-18.678 71.014-29.86 128.031-19.866 164.884 2.683 9.636 13.834 15.483 25.723 15.483l7.27-0.143h1.3c16.302 0.276 23.972-20.48 24.832-28.549 1.454-13.384-4.751-36.147-4.751-36.147 0 9.185 0.338 24.074-5.437 36.803-6.738 14.807-13.148 23.644-18.913 25.068-2.939-1.956-5.765-6.021-6.769-13.783-2.028-10.824-2.56-24.576-2.56-31.621 0-24.975 4.895-57.979 14.531-91.976 1.864 5.274 3.492 10.332 4.731 15.063 1.976 7.465 14.572 57.016 14.572 57.016s-3.154-65.956-7.608-85.893c-0.932-4.26-2.007-8.346-3.103-12.636 15.964-44.544 41.615-84.326 72.284-112.927 12.134-11.295 27.382-20.388 41.779-28.682 31.58 4.454 60.6 6.615 84.859 6.359 32.184-0.44 55.726-5.171 65.249-14.633 4.71-4.557 6.615-10.086 7.229-16.282 0.143-2.437-1.085-8.11-1.362-9.503zM497.336 393.451c-10.67-28.805-23.347-59.402-44.339-99.052-10.824-20.429-21.453-39.322-31.16-56.699 54.016 22.651 112.21 37.161 167.608 47.462-7.434 5.14-14.664 10.547-21.473 16.343-30.464 25.825-53.76 58.030-70.636 91.945z" />
<glyph unicode="&#xe66c;" glyph-name="pdf-2" d="M585.728 249.343h-40.96v-129.024h24.576v45.056h16.384c12.288 0 22.528 4.096 28.672 11.264 7.168 7.168 10.24 17.408 10.24 30.72s-4.096 23.552-10.24 30.72c-7.168 7.168-16.384 11.264-28.672 11.264zM594.944 194.047c-3.072-3.072-6.144-5.12-11.264-5.12h-14.336v36.864h14.336c5.12 0 8.192-2.048 11.264-5.12s4.096-7.168 4.096-13.312-1.024-10.24-4.096-13.312zM752.64 120.319h24.576v56.32h39.936v24.576h-39.936v23.552h41.984v24.576h-66.56zM719.872 230.911c-5.12 7.168-11.264 11.264-18.432 14.336s-18.432 4.096-32.768 4.096h-26.624v-129.024h26.624c14.336 0 25.6 1.024 32.768 4.096s13.312 8.192 18.432 14.336c5.12 6.144 8.192 13.312 10.24 20.48s3.072 16.384 3.072 25.6c0 9.216-1.024 18.432-3.072 25.6-2.048 8.192-6.144 14.336-10.24 20.48zM699.392 155.135c-5.12-7.168-13.312-10.24-23.552-10.24h-9.216v78.848h9.216c10.24 0 18.432-4.096 23.552-10.24s8.192-16.384 8.192-28.672c0-13.312-3.072-22.528-8.192-29.696zM834.56 934.399h-776.192v-972.8h908.288v840.704l-132.096 132.096zM901.12 26.111h-778.24v843.776h648.192v-130.048h130.048v-713.728zM616.448 398.847c-16.384 9.216-33.792 19.456-47.104 31.744-33.792 32.768-63.488 76.8-80.896 126.976 1.024 5.12 2.048 9.216 3.072 14.336 5.12 22.528 8.192 96.256 8.192 96.256s-14.336-56.32-16.384-64.512c-1.024-6.144-3.072-11.264-5.12-17.408-11.264 37.888-16.384 75.776-16.384 103.424 0 8.192 1.024 23.552 3.072 35.84 1.024 8.192 4.096 13.312 7.168 15.36 7.168-1.024 14.336-11.264 21.504-27.648 6.144-14.336 6.144-30.72 6.144-40.96 0 0 7.168 25.6 5.12 40.96-1.024 9.216-9.216 31.744-27.648 31.744h-9.216c-13.312 0-25.6-6.144-28.672-17.408-11.264-41.984 2.048-105.472 22.528-185.344l-6.144-15.36c-15.36-38.912-35.84-77.824-53.248-112.64-72.704-142.336-130.048-219.136-167.936-225.28v2.048c0 18.432 32.768 63.488 76.8 100.352 5.12 3.072 24.576 22.528 24.576 22.528s-26.624-13.312-32.768-17.408c-56.32-33.792-83.968-66.56-88.064-89.088-2.048-7.168-1.024-15.36 5.12-18.432l14.336-7.168c38.912-19.456 87.040 31.744 149.504 142.336 64.512 21.504 144.384 40.96 218.112 52.224 65.536-36.864 141.312-55.296 169.984-47.104 5.12 2.048 11.264 6.144 14.336 10.24 2.048 4.096 5.12 18.432 5.12 18.432s-6.144-7.168-10.24-9.216c-18.432-8.192-75.776 6.144-135.168 34.816 51.2 5.12 94.208 5.12 116.736-2.048 28.672-9.216 28.672-18.432 28.672-20.48 1.024 1.024 2.048 7.168 2.048 10.24-1.024 7.168-3.072 13.312-8.192 18.432-11.264 10.24-37.888 16.384-73.728 16.384-27.648 0-59.392-2.048-95.232-7.168zM390.144 338.431c10.24 19.456 22.528 40.96 34.816 63.488 23.552 45.056 37.888 78.848 50.176 111.616 18.432-37.888 45.056-74.752 78.848-103.424 8.192-6.144 16.384-12.288 24.576-18.432-62.464-11.264-128-27.648-188.416-53.248z" />
<glyph unicode="&#xe66d;" glyph-name="road-trips" d="M705.454 647.443h-204.462c-165.868 0-197.56-92.703-231.721-151.235-34.14-58.491-203.602-14.295-236.585-148.787 0 0-35.973-148.746-4.25-148.746 27.505 0 48.957 0 54.2 0 6.277 76.032 69.243 135.916 146.893 135.916 77.67 0 140.595-59.894 146.893-135.916 56.248 0 115.835 0 174.326 0 6.277 76.032 69.243 135.916 146.883 135.916 77.681 0 140.605-59.894 146.893-135.916 42.516 0 71.895 0 80.425 0 51.22 0 26.839 80.476-7.322 126.802-29.727 40.294-70.697 321.966-212.173 321.966zM455.854 468.172h-140.943c10.015 20.552 64.276 128.051 100.69 128.051 40.243 0 40.243 0 40.243 0v-128.051zM678.851 468.284h-182.917v128.543h182.917v-128.543zM229.53 304.137c-64.993 0-117.678-52.685-117.678-117.627 0-65.024 52.685-117.647 117.678-117.647 64.983 0 117.637 52.634 117.637 117.647 0 64.952-52.654 117.627-117.637 117.627zM229.53 136.898c-27.382 0-49.603 22.19-49.603 49.613 0 27.351 22.211 49.572 49.603 49.572 27.382 0 49.582-22.221 49.582-49.572 0-27.423-22.211-49.613-49.582-49.613zM697.62 304.137c-64.983 0-117.668-52.685-117.668-117.627 0-65.024 52.695-117.647 117.668-117.647s117.637 52.634 117.637 117.647c0 64.952-52.654 117.627-117.637 117.627zM697.62 136.898c-27.392 0-49.592 22.19-49.592 49.613 0 27.351 22.2 49.572 49.592 49.572 27.372 0 49.603-22.221 49.603-49.572 0-27.423-22.231-49.613-49.603-49.613zM997.857 342.087l-46.93-15.882c-8.294-2.806-17.316 1.638-20.101 9.923l-63.314 186.87c-2.775 8.274 1.669 17.285 9.953 20.101l46.94 15.923c8.325 2.775 17.326-1.638 20.163-9.964l63.222-186.87c2.816-8.284-1.618-17.295-9.933-20.101zM432.097 753.95v53.996c0 10.568 8.612 19.19 19.231 19.19h234.998c10.598 0 19.169-8.622 19.169-19.19v-53.996c0-10.588-8.571-19.128-19.169-19.128h-234.998c-10.609 0-19.231 8.54-19.231 19.128zM393.861 680.334v16.64c0 4.229 3.41 7.66 7.619 7.66h335.616c4.229 0 7.639-3.43 7.639-7.66v-16.64c0-4.229-3.41-7.67-7.639-7.67h-335.616c-4.209 0-7.619 3.441-7.619 7.67z" />
<glyph unicode="&#xe66e;" glyph-name="shield" d="M914.371 760.503c-76.165 16.445-291.502 76.892-371.999 157.317l-30.403 30.392-30.382-30.392c-80.527-80.425-295.844-140.872-371.978-157.317l-34.877-7.537 0.963-35.686c0.276-9.912 7.301-245.125 51.589-422.42 48.22-192.788 353.997-333.128 367.002-339.046l17.695-8.018 17.715 8.018c13.005 5.919 318.822 146.258 366.981 339.036 44.339 177.285 51.343 412.508 51.62 422.42l0.983 35.686-34.908 7.547zM512.645 419.388h-338.33c-17.603 109.67-25.088 221.88-27.945 277.842 78.203 19.753 260.055 71.936 366.285 153.139v-430.981zM829.030 309.687c-30.659-122.737-220.201-238.981-313.641-285.44v395.141h335.575c-6.011-37.601-13.251-74.977-21.934-109.701z" />
<glyph unicode="&#xe66f;" glyph-name="sms" d="M933.868 799.804h-843.735c-38.308 0-69.652-31.293-69.652-69.591v-446.587c0-38.308 31.345-69.601 69.652-69.601h843.745c38.308 0 69.652 31.293 69.652 69.601v446.587c-0.010 38.298-31.355 69.591-69.663 69.591zM270.172 405.39c-37.724 0-64.85 12.677-83.108 31.232l22.702 31.846c13.844-14.449 35.348-26.542 62.474-26.542 22.989 0 34.202 10.639 34.202 21.821 0 34.775-113.183 10.916-113.183 84.89 0 32.737 28.293 59.832 74.568 59.832 31.242 0 57.19-9.431 76.626-27.412l-23.276-30.659c-15.913 14.735-37.151 21.535-57.19 21.535-17.971 0-27.986-7.967-27.986-19.753 0-31.252 112.865-10.322 112.865-83.712 0-35.963-25.631-63.078-78.694-63.078zM619.858 408.923h-42.148v137.636l-55.409-137.636h-18.289l-55.398 137.636v-137.636h-41.851v196.608h58.655l47.739-118.804 47.759 118.804h58.952v-196.608zM758.241 405.39c-37.734 0-64.85 12.677-83.108 31.232l22.702 31.846c13.855-14.449 35.348-26.542 62.474-26.542 22.999 0 34.202 10.639 34.202 21.821 0 34.775-113.183 10.916-113.183 84.89 0 32.737 28.303 59.832 74.568 59.832 31.252 0 57.19-9.431 76.626-27.412l-23.286-30.659c-15.913 14.735-37.151 21.535-57.19 21.535-17.981 0-27.986-7.967-27.986-19.753 0-31.252 112.876-10.322 112.876-83.712 0-35.963-25.631-63.078-78.694-63.078zM187.064 94.207v120.515h119.808z" />
<glyph unicode="&#xe670;" glyph-name="taxi" d="M977.879 479.415c-2.58 11.213-5.622 21.125-9.124 30.034-1.044 3.041-2.181 6.031-3.277 8.878l-97.321 279.532c0 0-1.997 13.865-14.408 17.009h-205.404v60.088c0.276 33.874-29.819 55.521-66.345 55.276 0 0-139.909 0.246-139.397 0-36.454 0.246-67.082-21.402-66.97-55.276v-60.088h-205.394c-12.39-3.144-14.387-17.009-14.387-17.009l-97.28-279.532c-1.188-2.836-2.294-5.837-3.338-8.878-3.502-8.909-6.543-18.821-9.124-30.034-12.81-48.978-20.5-112.425-20.5-181.719 0-54.651 4.741-105.605 13.107-148.746 1.044-11.766 2.181-22.323 3.226-31.488v-102.922c0-26.972 21.883-48.876 48.916-48.876h40.192c27.064 0 48.906 21.914 48.906 48.876v49.285h663.962v-49.285c0-26.972 21.934-48.876 49.029-48.876h40.182c27.013 0 48.927 21.914 48.927 48.876v102.922c1.055 9.175 2.191 19.722 3.226 31.488 8.294 43.151 13.107 94.095 13.107 148.746 0.020 69.294-7.68 132.741-20.511 181.719zM184.32 281.988c-37.478 0-67.83 30.351-67.83 67.799 0 37.478 30.351 67.83 67.83 67.83 37.458 0 67.809-30.351 67.809-67.83 0-37.448-30.351-67.799-67.809-67.799zM154.143 576.235l57.702 156.16c0 0 1.106 9.912 10.537 11.725h575.764c9.411-1.802 10.547-11.725 10.547-11.725l57.661-156.16c0.758-41.81-37.335-60.805-356.116-61.85-318.771 1.044-356.854 20.040-356.096 61.85zM825.764 281.988c-37.478 0-67.83 30.351-67.83 67.799 0 37.478 30.351 67.83 67.83 67.83 37.458 0 67.809-30.351 67.809-67.83 0-37.448-30.351-67.799-67.809-67.799z" />
</font>
</defs>
</svg>
